<svg width="53" height="47" viewBox="0 0 53 47" fill="none" xmlns="http://www.w3.org/2000/svg">
<path d="M0 2.59283C0.00477845 1.9071 0.279129 1.25077 0.763784 0.765624C1.24844 0.28048 1.90449 0.00546936 2.59022 0H49.632C51.0629 0 52.2222 1.16194 52.2222 2.59283V44.4072C52.2174 45.0929 51.9431 45.7492 51.4584 46.2344C50.9738 46.7195 50.3177 46.9945 49.632 47H2.59022C1.90301 46.9993 1.24419 46.7258 0.7585 46.2397C0.272814 45.7535 -3.48466e-07 45.0944 0 44.4072V2.59283ZM26.1111 31.3333C24.0336 31.3333 22.0411 30.508 20.5721 29.039C19.1031 27.57 18.2778 25.5775 18.2778 23.5C18.2778 21.4225 19.1031 19.43 20.5721 17.961C22.0411 16.492 24.0336 15.6667 26.1111 15.6667C28.1886 15.6667 30.1811 16.492 31.6501 17.961C33.1192 19.43 33.9444 21.4225 33.9444 23.5C33.9444 25.5775 33.1192 27.57 31.6501 29.039C30.1811 30.508 28.1886 31.3333 26.1111 31.3333ZM26.1111 36.5556C29.5737 36.5556 32.8944 35.1801 35.3428 32.7317C37.7912 30.2833 39.1667 26.9625 39.1667 23.5C39.1667 20.0375 37.7912 16.7167 35.3428 14.2683C32.8944 11.8199 29.5737 10.4444 26.1111 10.4444C22.6486 10.4444 19.3278 11.8199 16.8794 14.2683C14.431 16.7167 13.0556 20.0375 13.0556 23.5C13.0556 26.9625 14.431 30.2833 16.8794 32.7317C19.3278 35.1801 22.6486 36.5556 26.1111 36.5556ZM41.7778 5.22222V10.4444H47V5.22222H41.7778Z" fill="white"/>
</svg>
