<svg width="47" height="47" viewBox="0 0 47 47" fill="none" xmlns="http://www.w3.org/2000/svg">
<path d="M23.5 0C36.479 0 47 10.521 47 23.5C47 36.479 36.479 47 23.5 47C10.521 47 0 36.479 0 23.5H4.7C4.7 33.8823 13.1177 42.3 23.5 42.3C33.8823 42.3 42.3 33.8823 42.3 23.5C42.3 13.1177 33.8823 4.7 23.5 4.7C17.7096 4.7 12.5302 7.3179 9.08275 11.4327L14.1 16.45H0V2.35L5.75045 8.0981C10.058 3.1396 16.4124 0 23.5 0ZM25.85 11.75V22.5247L33.471 30.1458L30.1458 33.471L21.15 24.4705V11.75H25.85Z" fill="white"/>
</svg>
