<svg width="55" height="47" viewBox="0 0 55 47" fill="none" xmlns="http://www.w3.org/2000/svg">
<path d="M14.8463 46.953C11.4677 46.6936 8.25753 45.3733 5.67405 43.1807C3.09058 40.9881 1.26592 38.0353 0.460627 34.7439C-0.344668 31.4525 -0.0894276 27.9909 1.1899 24.8532C2.46924 21.7155 4.70724 19.0622 7.58437 17.2722C8.19656 12.4988 10.5272 8.11203 14.1402 4.93285C17.7531 1.75368 22.4007 0 27.2132 0C32.0258 0 36.6734 1.75368 40.2863 4.93285C43.8993 8.11203 46.2299 12.4988 46.8421 17.2722C49.7193 19.0622 51.9573 21.7155 53.2366 24.8532C54.5159 27.9909 54.7712 31.4525 53.9659 34.7439C53.1606 38.0353 51.3359 40.9881 48.7524 43.1807C46.169 45.3733 42.9588 46.6936 39.5802 46.953V47H14.8463V46.953ZM29.6866 24.7394V14.8458H24.7399V24.7394H17.3197L27.2132 37.1064L37.1068 24.7394H29.6866Z" fill="white"/>
</svg>
