<svg width="50" height="47" viewBox="0 0 50 47" fill="none" xmlns="http://www.w3.org/2000/svg">
<path d="M4.94737 42.0526H44.5263V29.6842H49.4737V44.5263C49.4737 45.1824 49.2131 45.8116 48.7492 46.2755C48.2853 46.7394 47.6561 47 47 47H2.47368C1.81762 47 1.18843 46.7394 0.724525 46.2755C0.260619 45.8116 0 45.1824 0 44.5263V29.6842H4.94737V42.0526ZM24.7368 19.7895H17.3158C14.9734 19.7878 12.6639 20.3414 10.5768 21.4047C8.48961 22.4681 6.68419 24.011 5.30853 25.9069C6.18662 21.3985 8.60502 17.3358 12.1494 14.4146C15.6939 11.4934 20.1438 9.89553 24.7368 9.89474V0L44.5263 14.8421L24.7368 29.6842V19.7895Z" fill="white"/>
</svg>
