<svg width="39" height="47" viewBox="0 0 39 47" fill="none" xmlns="http://www.w3.org/2000/svg">
<path d="M1.67277 3.901L19.2273 0L36.7818 3.901C37.2562 4.00646 37.6805 4.27052 37.9846 4.64959C38.2887 5.02867 38.4545 5.5001 38.4545 5.98609V27.322C38.4544 29.4321 37.9333 31.5096 36.9375 33.37C35.9417 35.2304 34.502 36.8162 32.7462 37.9867L19.2273 47L5.70836 37.9867C3.95286 36.8164 2.51335 35.231 1.51756 33.371C0.521776 31.5109 0.000504943 29.4339 0 27.3241V5.98609C8.33989e-05 5.5001 0.165863 5.02867 0.469978 4.64959C0.774092 4.27052 1.19837 4.00646 1.67277 3.901V3.901ZM19.2273 21.3636C20.6438 21.3636 22.0022 20.8009 23.0039 19.7993C24.0055 18.7977 24.5682 17.4392 24.5682 16.0227C24.5682 14.6062 24.0055 13.2477 23.0039 12.2461C22.0022 11.2445 20.6438 10.6818 19.2273 10.6818C17.8108 10.6818 16.4523 11.2445 15.4507 12.2461C14.4491 13.2477 13.8864 14.6062 13.8864 16.0227C13.8864 17.4392 14.4491 18.7977 15.4507 19.7993C16.4523 20.8009 17.8108 21.3636 19.2273 21.3636ZM9.67132 32.0455H28.7832C28.5243 29.692 27.4059 27.517 25.6426 25.937C23.8793 24.357 21.5949 23.4834 19.2273 23.4834C16.8596 23.4834 14.5753 24.357 12.8119 25.937C11.0486 27.517 9.93029 29.692 9.67132 32.0455V32.0455Z" fill="white"/>
</svg>
