<svg width="53" height="47" viewBox="0 0 53 47" fill="none" xmlns="http://www.w3.org/2000/svg">
<path d="M5.22222 5.22222V41.7778H47V5.22222H5.22222ZM2.61111 0H49.6111C50.3036 0 50.9678 0.275098 51.4574 0.764777C51.9471 1.25445 52.2222 1.9186 52.2222 2.61111V44.3889C52.2222 45.0814 51.9471 45.7455 51.4574 46.2352C50.9678 46.7249 50.3036 47 49.6111 47H2.61111C1.9186 47 1.25445 46.7249 0.764777 46.2352C0.275098 45.7455 0 45.0814 0 44.3889V2.61111C0 1.9186 0.275098 1.25445 0.764777 0.764777C1.25445 0.275098 1.9186 0 2.61111 0V0ZM33.4039 17.7373L28.7222 13.0556H41.7778V26.1111L37.0961 21.4294L27.0067 31.5187L21.4686 25.9806L14.0817 33.3648L10.3896 29.6727L21.4686 18.5937L27.0067 24.1345L33.4039 17.7373Z" fill="white"/>
</svg>
