<svg width="555" height="326" viewBox="0 0 555 326" fill="none" xmlns="http://www.w3.org/2000/svg">
<path d="M440.941 174H344.588C343.711 174 343 174.711 343 175.588V262.412C343 263.289 343.711 264 344.588 264H440.941C441.819 264 442.529 263.289 442.529 262.412V175.588C442.529 174.711 441.819 174 440.941 174ZM439.353 260.824H346.176V177.176H404.941V186.706H350.941C350.064 186.706 349.353 187.417 349.353 188.294C349.353 189.171 350.064 189.882 350.941 189.882H434.588C435.466 189.882 436.177 189.171 436.177 188.294C436.177 187.417 435.466 186.706 434.588 186.706H408.118V177.176H439.353V260.824Z" fill="white"/>
<path d="M423.788 183.527C424.665 183.527 425.376 182.815 425.376 181.938C425.376 181.061 424.665 180.35 423.788 180.35C422.911 180.35 422.2 181.061 422.2 181.938C422.2 182.815 422.911 183.527 423.788 183.527Z" fill="white"/>
<path d="M415.106 183.527C415.983 183.527 416.694 182.815 416.694 181.938C416.694 181.061 415.983 180.35 415.106 180.35C414.229 180.35 413.517 181.061 413.517 181.938C413.517 182.815 414.229 183.527 415.106 183.527Z" fill="white"/>
<path d="M432.471 183.527C433.348 183.527 434.059 182.815 434.059 181.938C434.059 181.061 433.348 180.35 432.471 180.35C431.593 180.35 430.882 181.061 430.882 181.938C430.882 182.815 431.593 183.527 432.471 183.527Z" fill="white"/>
<path d="M392.765 213.001C386.275 213.001 380.995 218.281 380.995 224.771C380.995 231.26 386.275 236.54 392.765 236.54C394.632 236.54 396.494 236.088 398.151 235.234C398.931 234.832 399.237 233.874 398.835 233.094C398.433 232.315 397.475 232.009 396.695 232.411C395.469 233.043 394.147 233.363 392.765 233.363C388.027 233.363 384.172 229.509 384.172 224.77C384.172 220.032 388.027 216.178 392.765 216.178C397.503 216.178 401.357 220.032 401.357 224.77C401.357 226.153 401.037 227.475 400.405 228.701C400.003 229.48 400.309 230.438 401.089 230.841C401.868 231.242 402.826 230.937 403.228 230.157C404.083 228.501 404.534 226.638 404.534 224.77C404.534 218.281 399.254 213.001 392.765 213.001Z" fill="white"/>
<path d="M418.83 218.948H412.15C411.758 217.646 411.235 216.387 410.586 215.186L415.314 210.458C415.611 210.16 415.779 209.757 415.779 209.335C415.779 208.914 415.611 208.51 415.314 208.212L409.324 202.222C408.703 201.602 407.698 201.602 407.078 202.222L402.351 206.95C401.149 206.301 399.891 205.778 398.588 205.386V198.706C398.588 197.829 397.877 197.118 397 197.118H388.529C387.652 197.118 386.941 197.829 386.941 198.706V205.386C385.639 205.778 384.38 206.301 383.179 206.95L378.451 202.222C377.831 201.602 376.825 201.602 376.205 202.222L370.216 208.212C369.918 208.51 369.751 208.914 369.751 209.335C369.751 209.757 369.918 210.16 370.216 210.458L374.943 215.186C374.294 216.387 373.771 217.646 373.379 218.948H366.699C365.822 218.948 365.111 219.659 365.111 220.536V229.007C365.111 229.884 365.822 230.595 366.699 230.595H373.379C373.771 231.898 374.294 233.157 374.943 234.358L370.216 239.085C369.918 239.383 369.751 239.786 369.751 240.208C369.751 240.629 369.918 241.033 370.216 241.331L376.205 247.32C376.825 247.94 377.831 247.941 378.451 247.32L383.179 242.593C384.38 243.242 385.638 243.766 386.941 244.158V250.837C386.941 251.714 387.652 252.425 388.529 252.425H397C397.877 252.425 398.588 251.714 398.588 250.837V244.158C399.89 243.766 401.149 243.242 402.351 242.593L407.078 247.32C407.698 247.941 408.704 247.941 409.324 247.32L415.314 241.331C415.611 241.033 415.779 240.629 415.779 240.208C415.779 239.786 415.611 239.383 415.313 239.085L410.586 234.358C411.235 233.156 411.758 231.898 412.15 230.595H418.83C419.707 230.595 420.418 229.884 420.418 229.007V220.536C420.418 219.659 419.707 218.948 418.83 218.948ZM417.242 227.419H410.931C410.193 227.419 409.552 227.927 409.384 228.646C408.961 230.46 408.244 232.185 407.252 233.776C406.86 234.403 406.953 235.217 407.476 235.74L411.945 240.208L408.201 243.951L403.733 239.483C403.21 238.961 402.396 238.868 401.769 239.259C400.178 240.251 398.453 240.968 396.639 241.391C395.92 241.559 395.412 242.199 395.412 242.938V249.249H390.118V242.938C390.118 242.2 389.609 241.559 388.89 241.391C387.077 240.968 385.351 240.251 383.76 239.259C383.133 238.867 382.319 238.961 381.797 239.483L377.328 243.951L373.585 240.208L378.053 235.74C378.576 235.217 378.669 234.403 378.277 233.776C377.285 232.186 376.568 230.46 376.145 228.646C375.978 227.927 375.337 227.419 374.598 227.419H368.287V222.125H374.598C375.337 222.125 375.978 221.616 376.145 220.897C376.568 219.084 377.285 217.358 378.278 215.767C378.669 215.14 378.576 214.326 378.053 213.803L373.585 209.335L377.328 205.592L381.796 210.06C382.319 210.583 383.133 210.676 383.76 210.285C385.351 209.292 387.077 208.575 388.89 208.152C389.609 207.985 390.118 207.344 390.118 206.605V200.294H395.412V206.605C395.412 207.344 395.92 207.985 396.639 208.152C398.453 208.575 400.178 209.292 401.769 210.285C402.396 210.676 403.211 210.582 403.733 210.06L408.201 205.592L411.945 209.335L407.476 213.803C406.953 214.326 406.861 215.14 407.252 215.767C408.244 217.358 408.961 219.084 409.384 220.897C409.552 221.616 410.192 222.125 410.931 222.125H417.242V227.419Z" fill="white"/>
<path d="M349.056 283.148V293.732H350.766V299.744H348.138V296H340.092V299.744H337.464V293.732H338.454C338.79 293.06 339.114 292.352 339.426 291.608C339.738 290.864 340.026 290.066 340.29 289.214C340.566 288.362 340.812 287.438 341.028 286.442C341.244 285.434 341.424 284.336 341.568 283.148H349.056ZM343.728 285.416C343.644 286.04 343.524 286.706 343.368 287.414C343.212 288.11 343.026 288.824 342.81 289.556C342.606 290.288 342.378 291.008 342.126 291.716C341.874 292.424 341.604 293.096 341.316 293.732H346.338V285.416H343.728ZM361.452 291.068C361.452 291.884 361.338 292.61 361.11 293.246C360.894 293.882 360.576 294.422 360.156 294.866C359.748 295.298 359.25 295.628 358.662 295.856C358.074 296.072 357.408 296.18 356.664 296.18C355.98 296.18 355.344 296.072 354.756 295.856C354.18 295.628 353.682 295.298 353.262 294.866C352.842 294.422 352.512 293.882 352.272 293.246C352.044 292.61 351.93 291.884 351.93 291.068C351.93 289.976 352.122 289.058 352.506 288.314C352.89 287.558 353.442 286.982 354.162 286.586C354.882 286.19 355.734 285.992 356.718 285.992C357.642 285.992 358.458 286.19 359.166 286.586C359.874 286.982 360.432 287.558 360.84 288.314C361.248 289.058 361.452 289.976 361.452 291.068ZM354.666 291.068C354.666 291.716 354.732 292.262 354.864 292.706C355.008 293.138 355.23 293.468 355.53 293.696C355.83 293.912 356.22 294.02 356.7 294.02C357.18 294.02 357.564 293.912 357.852 293.696C358.152 293.468 358.368 293.138 358.5 292.706C358.644 292.262 358.716 291.716 358.716 291.068C358.716 290.42 358.644 289.88 358.5 289.448C358.368 289.016 358.152 288.692 357.852 288.476C357.552 288.26 357.162 288.152 356.682 288.152C355.974 288.152 355.458 288.398 355.134 288.89C354.822 289.37 354.666 290.096 354.666 291.068ZM367.665 296.18C366.693 296.18 365.865 296.006 365.181 295.658C364.497 295.298 363.975 294.746 363.615 294.002C363.255 293.258 363.075 292.304 363.075 291.14C363.075 289.94 363.279 288.962 363.687 288.206C364.095 287.45 364.659 286.892 365.379 286.532C366.111 286.172 366.951 285.992 367.899 285.992C368.571 285.992 369.153 286.058 369.645 286.19C370.149 286.322 370.587 286.478 370.959 286.658L370.167 288.728C369.747 288.56 369.351 288.422 368.979 288.314C368.619 288.206 368.259 288.152 367.899 288.152C367.431 288.152 367.041 288.266 366.729 288.494C366.417 288.71 366.183 289.04 366.027 289.484C365.883 289.916 365.811 290.462 365.811 291.122C365.811 291.77 365.889 292.31 366.045 292.742C366.213 293.162 366.453 293.48 366.765 293.696C367.077 293.9 367.455 294.002 367.899 294.002C368.463 294.002 368.961 293.93 369.393 293.786C369.825 293.63 370.245 293.42 370.653 293.156V295.442C370.245 295.706 369.813 295.892 369.357 296C368.913 296.12 368.349 296.18 367.665 296.18ZM381.051 288.188H377.829V296H375.147V288.188H371.925V286.172H381.051V288.188ZM381.46 286.172H384.394L386.248 291.698C386.308 291.878 386.356 292.058 386.392 292.238C386.44 292.418 386.476 292.604 386.5 292.796C386.536 292.988 386.56 293.192 386.572 293.408H386.626C386.662 293.096 386.71 292.802 386.77 292.526C386.842 292.238 386.92 291.962 387.004 291.698L388.822 286.172H391.702L387.544 297.26C387.292 297.932 386.962 298.496 386.554 298.952C386.158 299.408 385.696 299.75 385.168 299.978C384.64 300.206 384.064 300.32 383.44 300.32C383.14 300.32 382.876 300.302 382.648 300.266C382.432 300.242 382.24 300.212 382.072 300.176V298.052C382.204 298.076 382.36 298.1 382.54 298.124C382.732 298.148 382.93 298.16 383.134 298.16C383.506 298.16 383.824 298.082 384.088 297.926C384.364 297.77 384.592 297.554 384.772 297.278C384.952 297.014 385.096 296.726 385.204 296.414L385.366 295.928L381.46 286.172ZM402.04 286.172V296H399.358V288.188H395.794V296H393.112V286.172H402.04ZM414.445 286.172H417.397L413.509 290.888L417.739 296H414.697L410.683 291.014V296H408.001V286.172H410.683V290.942L414.445 286.172ZM422.508 296V283.148H432.678V296H429.96V285.416H425.226V296H422.508ZM447.584 289.556C447.584 290.552 447.458 291.458 447.206 292.274C446.966 293.078 446.594 293.774 446.09 294.362C445.598 294.95 444.962 295.4 444.182 295.712C443.414 296.024 442.508 296.18 441.464 296.18C440.42 296.18 439.508 296.024 438.728 295.712C437.96 295.388 437.324 294.938 436.82 294.362C436.328 293.774 435.956 293.072 435.704 292.256C435.464 291.44 435.344 290.534 435.344 289.538C435.344 288.206 435.56 287.048 435.992 286.064C436.436 285.08 437.108 284.318 438.008 283.778C438.92 283.226 440.078 282.95 441.482 282.95C442.874 282.95 444.02 283.226 444.92 283.778C445.82 284.318 446.486 285.086 446.918 286.082C447.362 287.066 447.584 288.224 447.584 289.556ZM438.206 289.556C438.206 290.456 438.32 291.23 438.548 291.878C438.776 292.526 439.13 293.024 439.61 293.372C440.09 293.72 440.708 293.894 441.464 293.894C442.244 293.894 442.868 293.72 443.336 293.372C443.816 293.024 444.164 292.526 444.38 291.878C444.608 291.23 444.722 290.456 444.722 289.556C444.722 288.2 444.47 287.138 443.966 286.37C443.462 285.602 442.634 285.218 441.482 285.218C440.714 285.218 440.09 285.392 439.61 285.74C439.13 286.088 438.776 286.586 438.548 287.234C438.32 287.882 438.206 288.656 438.206 289.556Z" fill="#CCCCCC"/>
<path fill-rule="evenodd" clip-rule="evenodd" d="M164.955 222.581L158.58 228.955L182.405 252.779L188.779 246.405L164.955 222.581ZM157.065 228.45L164.45 221.066C164.728 220.787 165.181 220.787 165.46 221.066L189.789 245.395L196.053 239.131L165.123 208.201C164.961 208.033 164.879 207.795 164.925 207.551C165.889 203.023 165.709 198.304 164.391 193.857C163.12 189.567 160.792 185.521 157.402 182.136C150.65 175.379 140.927 172.581 131.61 174.689L151.98 195.053C152.259 195.332 152.259 195.784 151.98 196.063L132.063 215.98C131.79 216.259 131.331 216.259 131.058 215.98L110.689 195.61C108.581 204.927 111.38 214.645 118.136 221.402C121.527 224.786 125.567 227.12 129.857 228.386C134.298 229.703 139 229.883 143.516 228.931C143.754 228.873 144.016 228.931 144.201 229.117L175.136 260.052L181.395 253.789L157.065 229.46C156.787 229.181 156.787 228.728 157.065 228.45ZM128.702 189.393C127.86 189.393 127.012 189.718 126.362 190.362C125.718 191.006 125.399 191.854 125.399 192.702C125.399 193.549 125.718 194.397 126.362 195.047C127.013 195.691 127.86 196.011 128.702 196.011C129.537 196.011 130.368 195.703 131.012 195.082L131.047 195.047C131.691 194.397 132.016 193.549 132.016 192.702C132.016 191.86 131.691 191.006 131.047 190.362C130.397 189.718 129.549 189.393 128.702 189.393ZM125.358 189.358C126.281 188.429 127.494 187.97 128.702 187.97C129.915 187.97 131.128 188.429 132.051 189.352C132.98 190.281 133.439 191.494 133.439 192.702C133.439 193.915 132.98 195.128 132.057 196.051L132.005 196.098C131.088 196.991 129.898 197.439 128.702 197.439C127.494 197.439 126.281 196.974 125.358 196.051C124.435 195.128 123.97 193.915 123.97 192.702C123.97 191.494 124.435 190.281 125.358 189.358ZM122.868 186.868L118.456 194.815L126.6 202.954L134.542 198.542L138.954 190.595L130.815 182.45L122.868 186.868ZM140.811 246.927C140.161 246.277 139.261 245.876 138.269 245.876C137.293 245.876 136.405 246.265 135.761 246.892L135.726 246.927C135.076 247.577 134.669 248.477 134.669 249.47C134.669 250.469 135.076 251.368 135.72 252.012C136.371 252.668 137.27 253.069 138.269 253.069C139.261 253.069 140.161 252.663 140.811 252.012C141.461 251.368 141.862 250.468 141.862 249.47C141.862 248.477 141.461 247.578 140.811 246.927ZM138.269 244.448C139.656 244.448 140.91 245.012 141.821 245.917C142.727 246.828 143.29 248.083 143.29 249.47C143.29 250.857 142.727 252.111 141.815 253.023C140.91 253.934 139.656 254.497 138.269 254.497C136.887 254.497 135.627 253.934 134.722 253.023C133.804 252.111 133.241 250.851 133.241 249.47C133.241 248.083 133.804 246.828 134.716 245.917L134.762 245.876C135.668 244.994 136.91 244.448 138.269 244.448ZM139.371 237.094H137.166V239.305C137.386 239.282 137.607 239.265 137.833 239.253H137.85H137.891H137.909H137.926H137.938L137.955 239.247H137.972H137.984H138.002H138.013H138.03H138.048H138.06H138.077H138.089H138.106H138.118H138.136H138.153H138.164H138.182H138.194H138.211H138.222H138.24H138.252H138.269H138.281H138.298H138.309H138.327H138.344H138.356H138.373H138.385H138.402H138.414H138.431H138.449H138.46H138.478H138.489H138.507H138.518H138.53H138.536H138.553H138.565H138.582L138.599 239.253H138.611H138.629H138.64H138.687H138.704C138.931 239.265 139.151 239.282 139.372 239.305V237.094H139.371ZM147.8 241.494L146.245 239.938L144.678 241.505L144.741 241.558L144.77 241.581L144.782 241.593L144.794 241.598L144.805 241.61L144.817 241.622L144.834 241.633L144.846 241.645L144.858 241.651L144.869 241.662L144.875 241.668L144.881 241.674L144.904 241.697L144.916 241.703L144.927 241.715L144.939 241.72V241.726L144.956 241.738L145.003 241.779L145.015 241.79C145.189 241.941 145.351 242.086 145.502 242.243C145.665 242.406 145.828 242.586 145.996 242.777L146.002 242.783L146.007 242.788L146.013 242.8L146.025 242.812L146.036 242.823L146.048 242.835L146.06 242.847L146.066 242.859L146.078 242.87V242.876L146.089 242.882L146.101 242.899L146.106 242.911L146.118 242.923L146.13 242.934L146.142 242.946L146.147 242.958L146.159 242.969L146.234 243.062L147.8 241.494ZM150.651 250.573V248.373H148.439C148.456 248.576 148.474 248.785 148.485 248.994V249.006V249.07V249.087L148.491 249.099V249.116V249.128V249.145V249.163V249.174V249.192V249.203V249.221V249.238V249.25V249.267V249.279V249.297H148.497V249.308V249.326V249.343V249.355V249.372V249.384V249.471V249.564V249.576V249.593V249.605V249.622V249.634L148.491 249.663V249.68V249.709V249.727V249.739V249.756V249.773V249.785V249.803V249.814V249.832V249.843L148.485 249.861V249.866V249.878V249.89V249.907V249.936V249.954L148.48 249.971V249.983C148.474 250.186 148.456 250.378 148.439 250.575H150.651V250.573ZM146.245 259.002L147.8 257.446L146.239 255.885C146.1 256.047 145.96 256.21 145.821 256.367L145.809 256.378L145.798 256.39L145.792 256.396L145.774 256.413L145.769 256.425L145.757 256.436L145.734 256.46L145.728 256.471L145.716 256.483L145.705 256.495L145.693 256.5L145.682 256.512L145.676 256.524L145.664 256.536L145.652 256.547L145.64 256.559L145.635 256.571L145.623 256.576L145.617 256.582L145.611 256.588L145.6 256.6L145.594 256.611L145.582 256.623L145.571 256.635L145.559 256.64V256.646L145.553 256.652L145.541 256.664L145.53 256.675L145.518 256.687L145.507 256.693L145.501 256.704L145.489 256.716L145.413 256.786L145.408 256.791V256.797L145.373 256.826L145.361 256.838L145.349 256.849L145.344 256.861L145.332 256.867L145.32 256.879L145.309 256.89L145.297 256.902L145.285 256.914L145.274 256.919L145.262 256.931L145.256 256.943L145.233 256.96L145.221 256.972L145.209 256.984C145.035 257.141 144.861 257.297 144.675 257.442L146.245 259.002ZM137.166 261.852H139.371V259.64C139.139 259.664 138.907 259.681 138.669 259.693H138.658H138.64H138.623H138.611H138.594H138.582H138.565L138.547 259.699H138.536H138.518H138.507H138.489H138.472H138.46H138.449H138.443H138.431H138.414H138.402H138.385H138.373H138.356H138.269H138.182H138.164H138.153H138.135H138.124H138.106H138.077H138.06H138.031H138.014H138.002H137.984L137.973 259.693H137.956H137.944H137.926H137.909H137.898H137.88H137.874H137.868H137.851L137.834 259.687H137.805H137.787H137.776H137.758H137.741L137.729 259.681H137.712C137.526 259.676 137.346 259.658 137.166 259.641V261.852H137.166ZM128.737 257.446L130.292 259.002L131.86 257.44L131.668 257.278H131.662L131.558 257.185L131.546 257.179L131.511 257.144L131.5 257.139L131.488 257.127L131.477 257.115L131.471 257.109L131.465 257.104L131.453 257.092L131.441 257.086L131.43 257.074L131.418 257.063L131.407 257.057V257.051L131.395 257.04L131.383 257.034C131.261 256.924 131.145 256.813 131.035 256.703C130.924 256.593 130.814 256.477 130.704 256.355L130.698 256.349V256.343L130.658 256.297L130.646 256.285L130.634 256.274L130.623 256.262L130.617 256.256L130.611 256.25L130.605 256.239L130.594 256.227L130.582 256.215L130.57 256.204L130.558 256.192L130.553 256.18L130.541 256.169L130.535 256.163L130.529 256.157L130.518 256.145L130.512 256.134L130.5 256.122L130.477 256.099L130.471 256.081L130.459 256.07L130.436 256.046L130.424 256.035L130.396 256L130.384 255.988L130.378 255.976V255.971L130.302 255.878L128.737 257.446ZM131.796 255.432L132.046 255.693L132.307 255.949L132.318 255.954L132.324 255.966L132.347 255.983L132.353 255.995L132.365 256.001L132.377 256.013L132.382 256.018L132.394 256.03L132.406 256.036L132.411 256.047H132.417L132.423 256.053L132.435 256.065L132.452 256.082L132.464 256.088L132.47 256.1L132.481 256.106L132.493 256.111V256.117L132.499 256.123L132.511 256.128L132.528 256.146L132.54 256.158L132.546 256.163L132.569 256.181L132.574 256.187L132.627 256.227L132.633 256.233L132.801 256.372L132.807 256.378L132.819 256.384L132.883 256.436L132.888 256.442H132.894L132.9 256.448L132.912 256.459L132.923 256.465L132.935 256.471L132.941 256.483L132.953 256.488L132.964 256.494L132.97 256.5L132.976 256.505L132.987 256.511L132.999 256.523L133.005 256.529L133.017 256.534L133.028 256.546L133.04 256.552L133.052 256.558V256.563L133.063 256.569L133.069 256.575L133.081 256.581L133.092 256.592L133.104 256.598L133.116 256.604L133.128 256.616L133.139 256.621L133.145 256.627L133.156 256.639L133.168 256.644L133.18 256.65L133.192 256.662L133.203 256.668L133.215 256.673L133.221 256.679L133.227 256.685L133.238 256.691L133.244 256.696L133.262 256.708L133.267 256.714L133.279 256.72L133.291 256.731L133.302 256.737L133.308 256.743H133.314L133.326 256.754L133.337 256.76L133.349 256.766L133.361 256.778L133.378 256.789C134.713 257.695 136.327 258.217 138.045 258.27H138.063H138.156H138.173H138.272C140.623 258.27 142.765 257.347 144.344 255.843L144.466 255.727L144.472 255.715L144.484 255.704L144.495 255.692L144.507 255.686L144.512 255.674C146.045 254.13 147.009 252.023 147.073 249.695V249.677V249.585V249.567V249.469V249.387V249.37V249.358V249.346C147.067 248.865 147.02 248.389 146.939 247.93L146.933 247.918V247.889L146.927 247.878V247.872V247.866L146.921 247.855C146.701 246.635 146.219 245.503 145.546 244.516L145.54 244.511L145.534 244.499L145.528 244.487L145.522 244.476L145.511 244.464V244.458L145.505 244.452L145.493 244.435L145.482 244.423L145.47 244.4L145.458 244.394L145.447 244.371L145.441 244.359L145.429 244.354L145.423 244.342L145.417 244.33L145.412 244.319L145.4 244.313L145.394 244.301L145.388 244.29L145.383 244.278L145.371 244.272L145.365 244.26L145.359 244.249L145.347 244.237L145.341 244.225L145.336 244.219L145.33 244.208L145.324 244.202L145.318 244.196L145.313 244.191L145.307 244.179L145.295 244.167L145.289 244.155L145.283 244.15L145.277 244.138L145.266 244.126L145.26 244.12V244.115L145.254 244.109L145.242 244.097L145.213 244.062L145.207 244.051L145.202 244.039L145.196 244.033L145.19 244.028C145.074 243.883 144.952 243.738 144.824 243.592L144.818 243.586L144.807 243.575L144.801 243.563L144.789 243.557L144.783 243.552L144.778 243.546L144.772 243.534L144.76 243.528L144.754 243.517L144.743 243.505L144.737 243.499L144.725 243.488L144.713 243.476V243.47L144.708 243.464L144.696 243.459L144.69 243.447L144.679 243.435L144.667 243.429L144.661 243.418L144.649 243.406L144.591 243.348L144.58 243.336L144.568 243.319H144.562L144.551 243.307L144.545 243.295L144.493 243.243L144.44 243.197L144.429 243.185L144.423 243.173L144.4 243.156L144.388 243.144L144.382 243.133L144.37 243.127L144.353 243.104H144.347L144.33 243.086L144.318 243.075L144.312 243.069L144.301 243.057L144.289 243.051L144.277 243.04L144.271 243.034V243.028L144.26 243.022L144.248 243.011L144.242 243.005L144.231 242.993L144.219 242.982L144.213 242.976L144.201 242.964H144.196L144.19 242.958L144.178 242.947L144.172 242.941L144.161 242.929C143.998 242.784 143.83 242.639 143.656 242.505H143.65L143.644 242.5L143.447 242.349L143.435 242.343L143.423 242.331L143.412 242.326L143.406 242.32H143.4L143.388 242.308L143.377 242.302L143.371 242.291L143.359 242.285L143.348 242.279L143.336 242.274L143.324 242.262L143.312 242.256L143.301 242.25L143.289 242.238L143.278 242.233L143.266 242.227L143.26 242.215L143.248 242.21L143.236 242.204L143.225 242.192L143.213 242.187L143.202 242.181L143.19 242.169L143.172 242.163L143.161 242.152C141.831 241.252 140.235 240.729 138.529 240.671H138.517H138.505H138.493H138.487H138.476H138.464H138.447H138.435H138.418H138.406H138.395H138.383H138.377H138.365L138.348 240.666H138.337H138.325H138.307H138.296H138.279H138.267H138.25H138.238H138.226H138.209H138.197H138.18L138.168 240.671H138.156H138.151H138.139H138.127H138.11H138.098H138.087H138.069H138.058H138.046H138.04H138.028H138.017H138C135.683 240.741 133.593 241.705 132.061 243.226L132.055 243.237L132.043 243.243L132.032 243.255L132.02 243.266C130.493 244.805 129.524 246.912 129.466 249.246V249.258V249.356V249.368V249.467V249.554V249.565V249.583V249.595C129.472 250.1 129.524 250.587 129.611 251.069V251.075V251.087L129.623 251.15H129.628C129.855 252.346 130.331 253.461 130.993 254.43L131.004 254.442L131.01 254.454L131.016 254.465L131.022 254.471L131.028 254.477L131.034 254.483L131.039 254.494L131.045 254.506L131.051 254.518L131.063 254.523L131.074 254.547L131.08 254.558L131.092 254.564V254.57L131.098 254.576L131.104 254.587L131.115 254.599L131.121 254.611L131.127 254.616L131.133 254.628L131.144 254.64L131.15 254.652L131.156 254.657L131.162 254.669L131.174 254.681L131.179 254.692L131.185 254.698L131.191 254.71L131.203 254.721L131.209 254.733L131.214 254.739L131.226 254.751L131.232 254.762L131.267 254.809L131.278 254.82L131.29 254.838L131.302 254.849L131.313 254.867L131.325 254.879L131.342 254.908L131.354 254.919L131.366 254.937L131.377 254.948L131.395 254.977L131.406 254.983V254.989L131.586 255.198L131.592 255.209L131.598 255.221L131.61 255.227V255.233L131.616 255.238L131.627 255.25L131.633 255.256L131.644 255.267L131.65 255.279L131.662 255.285L131.668 255.296L131.68 255.308L131.685 255.314L131.697 255.326L131.703 255.337L131.715 255.343L131.72 255.355L131.732 255.367L131.738 255.372L131.749 255.384L131.755 255.39V255.395L131.767 255.401L131.773 255.413L131.785 255.425L131.796 255.432ZM125.886 248.373V250.573H128.098C128.075 250.37 128.063 250.161 128.052 249.952V249.934V249.876L128.046 249.859V249.841V249.83V249.812V249.801V249.783V249.771V249.754V249.737V249.725V249.707L128.04 249.696V249.678V249.661V249.649V249.632V249.62V249.603V249.591V249.573V249.562V249.469V249.382V249.37V249.352V249.341V249.324V249.306V249.277V249.265L128.046 249.236V249.219V249.207V249.201V249.19V249.172V249.161V249.143V249.126V249.114V249.097V249.085V249.073L128.052 249.068V249.05V249.038V249.003V248.992V248.974V248.957C128.063 248.759 128.08 248.562 128.098 248.371H125.886V248.373ZM156.63 207.586C157.298 208.248 158.302 207.243 157.64 206.576L156.63 205.572C155.968 204.904 154.958 205.914 155.62 206.576L156.63 207.586ZM160.665 211.62C161.326 212.282 162.336 211.278 161.675 210.611L160.665 209.6C160.003 208.939 158.993 209.949 159.654 210.611L160.665 211.62ZM164.699 215.655C165.361 216.317 166.371 215.307 165.709 214.645L164.699 213.635C164.037 212.973 163.027 213.983 163.689 214.645L164.699 215.655ZM168.734 219.69C169.396 220.351 170.406 219.341 169.744 218.68L168.734 217.669C168.072 217.008 167.062 218.018 167.723 218.68L168.734 219.69ZM172.768 223.724C173.43 224.386 174.44 223.376 173.778 222.714L172.768 221.704C172.106 221.042 171.096 222.052 171.758 222.714L172.768 223.724ZM176.803 227.759C177.465 228.421 178.475 227.411 177.813 226.749L176.803 225.739C176.141 225.077 175.131 226.087 175.793 226.749L176.803 227.759ZM180.837 231.793C181.499 232.455 182.509 231.445 181.848 230.783L180.837 229.773C180.176 229.111 179.166 230.121 179.827 230.783L180.837 231.793ZM184.872 235.828C185.534 236.49 186.544 235.48 185.882 234.818L184.872 233.808C184.222 233.158 183.212 234.168 183.862 234.818L184.872 235.828ZM188.506 239.462C189.168 240.124 190.178 239.113 189.516 238.452L188.907 237.842C188.256 237.192 187.246 238.202 187.896 238.852L188.506 239.462ZM152.596 201.537C151.934 200.869 150.923 201.879 151.591 202.541L152.596 203.551C153.263 204.219 154.267 203.209 153.606 202.541L152.596 201.537ZM141.99 222.325C142.64 222.975 143.65 221.965 143 221.315L141.995 220.305C141.333 219.643 140.324 220.653 140.985 221.315L141.99 222.325ZM146.024 226.36C146.692 227.021 147.702 226.011 147.034 225.35L146.024 224.34C145.368 223.678 144.358 224.688 145.02 225.35L146.024 226.36ZM150.059 230.394C150.72 231.056 151.731 230.046 151.069 229.384L150.059 228.374C149.397 227.712 148.387 228.722 149.049 229.384L150.059 230.394ZM154.093 234.429C154.761 235.091 155.765 234.08 155.103 233.419L154.093 232.409C153.432 231.747 152.422 232.757 153.083 233.419L154.093 234.429ZM158.128 238.464C158.789 239.125 159.8 238.115 159.138 237.453L158.128 236.443C157.466 235.782 156.456 236.786 157.118 237.453L158.128 238.464ZM162.162 242.492C162.824 243.16 163.834 242.149 163.172 241.488L162.162 240.478C161.5 239.816 160.49 240.826 161.152 241.488L162.162 242.492ZM166.197 246.533C166.859 247.194 167.869 246.184 167.207 245.522L166.197 244.512C165.535 243.85 164.525 244.861 165.187 245.522L166.197 246.533ZM170.232 250.567C170.893 251.229 171.903 250.219 171.242 249.557L170.232 248.547C169.57 247.885 168.56 248.895 169.222 249.557L170.232 250.567ZM173.865 254.201C174.533 254.863 175.543 253.853 174.875 253.191L174.266 252.582C173.604 251.92 172.6 252.93 173.262 253.592L173.865 254.201ZM137.961 216.27C137.293 215.609 136.283 216.619 136.95 217.281L137.955 218.291C138.622 218.952 139.632 217.948 138.965 217.281L137.961 216.27ZM183.148 260.349C183.537 260.349 183.856 260.668 183.856 261.063C183.856 261.452 183.537 261.777 183.148 261.777H142.03C141.636 261.777 141.316 261.452 141.316 261.063C141.316 260.668 141.636 260.349 142.03 260.349H183.148ZM159.068 262.572C159.463 262.572 159.782 262.891 159.782 263.286C159.782 263.681 159.463 264 159.068 264H130.617C130.228 264 129.904 263.681 129.904 263.286C129.904 262.891 130.228 262.572 130.617 262.572H159.068ZM127.709 262.572C128.104 262.572 128.423 262.891 128.423 263.286C128.423 263.681 128.104 264 127.709 264H124.15C123.756 264 123.437 263.681 123.437 263.286C123.437 262.891 123.756 262.572 124.15 262.572H127.709ZM188.941 262.166C189.33 262.166 189.655 262.485 189.655 262.88C189.655 263.274 189.33 263.594 188.941 263.594H175.456C175.067 263.594 174.747 263.274 174.747 262.88C174.747 262.485 175.067 262.166 175.456 262.166H188.941ZM130.292 239.938L128.736 241.494L130.298 243.061C130.431 242.893 130.571 242.73 130.716 242.573L130.728 242.562L130.739 242.55L130.745 242.544L130.757 242.527L130.769 242.521L130.78 242.509L130.798 242.486L130.809 242.475L130.821 242.463L130.832 242.451L130.844 242.44L130.85 242.428L130.856 242.422L130.861 242.416L130.873 242.411L130.885 242.399L130.891 242.387L130.903 242.376L130.914 242.364L130.92 242.358L130.926 242.352L130.931 242.341L130.943 242.335L130.955 242.323L130.967 242.312L130.978 242.3L130.984 242.288L130.996 242.283L131.007 242.271L131.019 242.259L131.025 242.247L131.037 242.241L131.048 242.23L131.06 242.218L131.066 242.206L131.077 242.195L131.089 242.189L131.095 242.177H131.101L131.113 242.166L131.118 242.154L131.13 242.148L131.142 242.137L131.153 242.125L131.159 242.119L131.165 242.113L131.177 242.108L131.182 242.096L131.194 242.084L131.206 242.073L131.218 242.061L131.229 242.055L131.241 242.043L131.252 242.031L131.264 242.02L131.27 242.014L131.282 242.003L131.305 241.979L131.317 241.968L131.328 241.962L131.346 241.944L131.352 241.939L131.363 241.927L131.375 241.921C131.532 241.776 131.694 241.637 131.857 241.503L130.292 239.938Z" fill="white"/>
<path d="M123.271 296L120.175 285.92H120.103C120.115 286.16 120.133 286.52 120.157 287C120.181 287.48 120.205 287.996 120.229 288.548C120.253 289.088 120.265 289.58 120.265 290.024V296H117.835V283.148H121.543L124.585 292.976H124.639L127.861 283.148H131.569V296H129.031V289.916C129.031 289.508 129.037 289.04 129.049 288.512C129.073 287.984 129.091 287.486 129.103 287.018C129.127 286.538 129.145 286.178 129.157 285.938H129.085L125.773 296H123.271ZM143.527 291.068C143.527 291.884 143.413 292.61 143.185 293.246C142.969 293.882 142.651 294.422 142.231 294.866C141.823 295.298 141.325 295.628 140.737 295.856C140.149 296.072 139.483 296.18 138.739 296.18C138.055 296.18 137.419 296.072 136.831 295.856C136.255 295.628 135.757 295.298 135.337 294.866C134.917 294.422 134.587 293.882 134.347 293.246C134.119 292.61 134.005 291.884 134.005 291.068C134.005 289.976 134.197 289.058 134.581 288.314C134.965 287.558 135.517 286.982 136.237 286.586C136.957 286.19 137.809 285.992 138.793 285.992C139.717 285.992 140.533 286.19 141.241 286.586C141.949 286.982 142.507 287.558 142.915 288.314C143.323 289.058 143.527 289.976 143.527 291.068ZM136.741 291.068C136.741 291.716 136.807 292.262 136.939 292.706C137.083 293.138 137.305 293.468 137.605 293.696C137.905 293.912 138.295 294.02 138.775 294.02C139.255 294.02 139.639 293.912 139.927 293.696C140.227 293.468 140.443 293.138 140.575 292.706C140.719 292.262 140.791 291.716 140.791 291.068C140.791 290.42 140.719 289.88 140.575 289.448C140.443 289.016 140.227 288.692 139.927 288.476C139.627 288.26 139.237 288.152 138.757 288.152C138.049 288.152 137.533 288.398 137.209 288.89C136.897 289.37 136.741 290.096 136.741 291.068ZM148.426 286.172V289.952H152.17V286.172H154.852V296H152.17V291.95H148.426V296H145.744V286.172H148.426ZM165.798 288.188H162.576V296H159.894V288.188H156.672V286.172H165.798V288.188ZM171.643 285.974C172.963 285.974 173.971 286.262 174.667 286.838C175.375 287.402 175.729 288.272 175.729 289.448V296H173.857L173.335 294.668H173.263C172.987 295.016 172.699 295.304 172.399 295.532C172.111 295.76 171.775 295.922 171.391 296.018C171.019 296.126 170.557 296.18 170.005 296.18C169.429 296.18 168.907 296.072 168.439 295.856C167.983 295.628 167.623 295.286 167.359 294.83C167.095 294.362 166.963 293.774 166.963 293.066C166.963 292.022 167.329 291.254 168.061 290.762C168.793 290.258 169.891 289.982 171.355 289.934L173.065 289.88V289.448C173.065 288.932 172.927 288.554 172.651 288.314C172.387 288.074 172.015 287.954 171.535 287.954C171.055 287.954 170.587 288.026 170.131 288.17C169.675 288.302 169.219 288.47 168.763 288.674L167.881 286.856C168.409 286.58 168.991 286.364 169.627 286.208C170.275 286.052 170.947 285.974 171.643 285.974ZM172.021 291.482C171.157 291.506 170.557 291.662 170.221 291.95C169.885 292.238 169.717 292.616 169.717 293.084C169.717 293.492 169.837 293.786 170.077 293.966C170.317 294.134 170.629 294.218 171.013 294.218C171.589 294.218 172.075 294.05 172.471 293.714C172.867 293.366 173.065 292.88 173.065 292.256V291.446L172.021 291.482ZM192.442 286.172L188.824 290.888L192.784 296H189.922L186.178 291.014V296H183.676V291.014L179.932 296H177.07L181.03 290.888L177.412 286.172H180.184L183.676 290.942V286.172H186.178V290.942L189.67 286.172H192.442ZM97.1211 316.068C97.1211 316.884 97.0071 317.61 96.7791 318.246C96.5631 318.882 96.2451 319.422 95.8251 319.866C95.4171 320.298 94.9191 320.628 94.3311 320.856C93.7431 321.072 93.0771 321.18 92.3331 321.18C91.6491 321.18 91.0131 321.072 90.4251 320.856C89.8491 320.628 89.3511 320.298 88.9311 319.866C88.5111 319.422 88.1811 318.882 87.9411 318.246C87.7131 317.61 87.5991 316.884 87.5991 316.068C87.5991 314.976 87.7911 314.058 88.1751 313.314C88.5591 312.558 89.1111 311.982 89.8311 311.586C90.5511 311.19 91.4031 310.992 92.3871 310.992C93.3111 310.992 94.1271 311.19 94.8351 311.586C95.5431 311.982 96.1011 312.558 96.5091 313.314C96.9171 314.058 97.1211 314.976 97.1211 316.068ZM90.3351 316.068C90.3351 316.716 90.4011 317.262 90.5331 317.706C90.6771 318.138 90.8991 318.468 91.1991 318.696C91.4991 318.912 91.8891 319.02 92.3691 319.02C92.8491 319.02 93.2331 318.912 93.5211 318.696C93.8211 318.468 94.0371 318.138 94.1691 317.706C94.3131 317.262 94.3851 316.716 94.3851 316.068C94.3851 315.42 94.3131 314.88 94.1691 314.448C94.0371 314.016 93.8211 313.692 93.5211 313.476C93.2211 313.26 92.8311 313.152 92.3511 313.152C91.6431 313.152 91.1271 313.398 90.8031 313.89C90.4911 314.37 90.3351 315.096 90.3351 316.068ZM98.7436 315.114C98.7436 313.662 98.9236 312.432 99.2836 311.424C99.6436 310.404 100.214 309.594 100.994 308.994C101.774 308.382 102.794 307.968 104.054 307.752C104.69 307.644 105.332 307.554 105.98 307.482C106.64 307.398 107.318 307.314 108.014 307.23L108.32 309.57C108.02 309.606 107.69 309.648 107.33 309.696C106.97 309.732 106.604 309.774 106.232 309.822C105.872 309.858 105.524 309.9 105.188 309.948C104.852 309.996 104.546 310.038 104.27 310.074C103.826 310.146 103.436 310.248 103.1 310.38C102.764 310.5 102.482 310.674 102.254 310.902C102.026 311.13 101.846 311.442 101.714 311.838C101.594 312.222 101.516 312.72 101.48 313.332H101.606C101.75 313.104 101.948 312.876 102.2 312.648C102.464 312.42 102.788 312.228 103.172 312.072C103.556 311.916 103.994 311.838 104.486 311.838C105.266 311.838 105.944 312 106.52 312.324C107.096 312.648 107.54 313.128 107.852 313.764C108.164 314.4 108.32 315.192 108.32 316.14C108.32 317.256 108.116 318.186 107.708 318.93C107.3 319.674 106.736 320.238 106.016 320.622C105.296 320.994 104.462 321.18 103.514 321.18C102.794 321.18 102.14 321.048 101.552 320.784C100.964 320.52 100.46 320.13 100.04 319.614C99.6196 319.098 99.2956 318.462 99.0676 317.706C98.8516 316.95 98.7436 316.086 98.7436 315.114ZM103.676 319.002C104.06 319.002 104.39 318.918 104.666 318.75C104.954 318.582 105.176 318.306 105.332 317.922C105.5 317.538 105.584 317.022 105.584 316.374C105.584 315.594 105.452 314.976 105.188 314.52C104.936 314.052 104.492 313.818 103.856 313.818C103.472 313.818 103.112 313.914 102.776 314.106C102.452 314.286 102.176 314.496 101.948 314.736C101.72 314.964 101.564 315.162 101.48 315.33C101.48 315.798 101.516 316.254 101.588 316.698C101.66 317.13 101.78 317.52 101.948 317.868C102.116 318.216 102.338 318.492 102.614 318.696C102.902 318.9 103.256 319.002 103.676 319.002ZM119.463 316.068C119.463 316.884 119.349 317.61 119.121 318.246C118.905 318.882 118.587 319.422 118.167 319.866C117.759 320.298 117.261 320.628 116.673 320.856C116.085 321.072 115.419 321.18 114.675 321.18C113.991 321.18 113.355 321.072 112.767 320.856C112.191 320.628 111.693 320.298 111.273 319.866C110.853 319.422 110.523 318.882 110.283 318.246C110.055 317.61 109.941 316.884 109.941 316.068C109.941 314.976 110.133 314.058 110.517 313.314C110.901 312.558 111.453 311.982 112.173 311.586C112.893 311.19 113.745 310.992 114.729 310.992C115.653 310.992 116.469 311.19 117.177 311.586C117.885 311.982 118.443 312.558 118.851 313.314C119.259 314.058 119.463 314.976 119.463 316.068ZM112.677 316.068C112.677 316.716 112.743 317.262 112.875 317.706C113.019 318.138 113.241 318.468 113.541 318.696C113.841 318.912 114.231 319.02 114.711 319.02C115.191 319.02 115.575 318.912 115.863 318.696C116.163 318.468 116.379 318.138 116.511 317.706C116.655 317.262 116.727 316.716 116.727 316.068C116.727 315.42 116.655 314.88 116.511 314.448C116.379 314.016 116.163 313.692 115.863 313.476C115.563 313.26 115.173 313.152 114.693 313.152C113.985 313.152 113.469 313.398 113.145 313.89C112.833 314.37 112.677 315.096 112.677 316.068ZM127.151 310.992C128.255 310.992 129.149 311.424 129.833 312.288C130.517 313.14 130.859 314.4 130.859 316.068C130.859 317.184 130.697 318.126 130.373 318.894C130.049 319.65 129.605 320.22 129.041 320.604C128.477 320.988 127.823 321.18 127.079 321.18C126.611 321.18 126.203 321.12 125.855 321C125.519 320.88 125.231 320.724 124.991 320.532C124.751 320.34 124.541 320.136 124.361 319.92H124.217C124.265 320.148 124.301 320.388 124.325 320.64C124.349 320.88 124.361 321.12 124.361 321.36V325.32H121.679V311.172H123.857L124.235 312.45H124.361C124.541 312.186 124.757 311.946 125.009 311.73C125.261 311.502 125.561 311.322 125.909 311.19C126.269 311.058 126.683 310.992 127.151 310.992ZM126.287 313.134C125.819 313.134 125.447 313.23 125.171 313.422C124.895 313.614 124.691 313.908 124.559 314.304C124.439 314.688 124.373 315.174 124.361 315.762V316.05C124.361 316.686 124.421 317.226 124.541 317.67C124.661 318.102 124.865 318.432 125.153 318.66C125.441 318.888 125.831 319.002 126.323 319.002C126.731 319.002 127.067 318.888 127.331 318.66C127.595 318.432 127.793 318.096 127.925 317.652C128.057 317.208 128.123 316.668 128.123 316.032C128.123 315.072 127.973 314.352 127.673 313.872C127.385 313.38 126.923 313.134 126.287 313.134ZM131.49 311.172H134.424L136.278 316.698C136.338 316.878 136.386 317.058 136.422 317.238C136.47 317.418 136.506 317.604 136.53 317.796C136.566 317.988 136.59 318.192 136.602 318.408H136.656C136.692 318.096 136.74 317.802 136.8 317.526C136.872 317.238 136.95 316.962 137.034 316.698L138.852 311.172H141.732L137.574 322.26C137.322 322.932 136.992 323.496 136.584 323.952C136.188 324.408 135.726 324.75 135.198 324.978C134.67 325.206 134.094 325.32 133.47 325.32C133.17 325.32 132.906 325.302 132.678 325.266C132.462 325.242 132.27 325.212 132.102 325.176V323.052C132.234 323.076 132.39 323.1 132.57 323.124C132.762 323.148 132.96 323.16 133.164 323.16C133.536 323.16 133.854 323.082 134.118 322.926C134.394 322.77 134.622 322.554 134.802 322.278C134.982 322.014 135.126 321.726 135.234 321.414L135.396 320.928L131.49 311.172ZM151.629 311.172V319.038H153.069V324.528H150.657V321H144.051V324.528H141.639V319.038H142.467C142.899 318.378 143.265 317.628 143.565 316.788C143.865 315.936 144.105 315.03 144.285 314.07C144.465 313.11 144.597 312.144 144.681 311.172H151.629ZM146.931 313.188C146.835 313.908 146.715 314.61 146.571 315.294C146.427 315.966 146.247 316.614 146.031 317.238C145.827 317.862 145.575 318.462 145.275 319.038H148.947V313.188H146.931ZM163.672 316.068C163.672 316.884 163.558 317.61 163.33 318.246C163.114 318.882 162.796 319.422 162.376 319.866C161.968 320.298 161.47 320.628 160.882 320.856C160.294 321.072 159.628 321.18 158.884 321.18C158.2 321.18 157.564 321.072 156.976 320.856C156.4 320.628 155.902 320.298 155.482 319.866C155.062 319.422 154.732 318.882 154.492 318.246C154.264 317.61 154.15 316.884 154.15 316.068C154.15 314.976 154.342 314.058 154.726 313.314C155.11 312.558 155.662 311.982 156.382 311.586C157.102 311.19 157.954 310.992 158.938 310.992C159.862 310.992 160.678 311.19 161.386 311.586C162.094 311.982 162.652 312.558 163.06 313.314C163.468 314.058 163.672 314.976 163.672 316.068ZM156.886 316.068C156.886 316.716 156.952 317.262 157.084 317.706C157.228 318.138 157.45 318.468 157.75 318.696C158.05 318.912 158.44 319.02 158.92 319.02C159.4 319.02 159.784 318.912 160.072 318.696C160.372 318.468 160.588 318.138 160.72 317.706C160.864 317.262 160.936 316.716 160.936 316.068C160.936 315.42 160.864 314.88 160.72 314.448C160.588 314.016 160.372 313.692 160.072 313.476C159.772 313.26 159.382 313.152 158.902 313.152C158.194 313.152 157.678 313.398 157.354 313.89C157.042 314.37 156.886 315.096 156.886 316.068ZM174.6 313.746C174.6 314.274 174.432 314.724 174.096 315.096C173.772 315.468 173.286 315.708 172.638 315.816V315.888C173.322 315.972 173.868 316.206 174.276 316.59C174.696 316.974 174.906 317.466 174.906 318.066C174.906 318.486 174.822 318.876 174.654 319.236C174.498 319.596 174.246 319.908 173.898 320.172C173.55 320.436 173.1 320.64 172.548 320.784C172.008 320.928 171.348 321 170.568 321H165.888V311.172H170.568C171.336 311.172 172.02 311.256 172.62 311.424C173.232 311.58 173.712 311.844 174.06 312.216C174.42 312.588 174.6 313.098 174.6 313.746ZM172.134 317.922C172.134 317.538 171.984 317.262 171.684 317.094C171.384 316.914 170.934 316.824 170.334 316.824H168.57V319.146H170.388C170.892 319.146 171.306 319.056 171.63 318.876C171.966 318.684 172.134 318.366 172.134 317.922ZM171.882 313.962C171.882 313.65 171.762 313.422 171.522 313.278C171.282 313.134 170.928 313.062 170.46 313.062H168.57V315.006H170.154C170.718 315.006 171.144 314.928 171.432 314.772C171.732 314.604 171.882 314.334 171.882 313.962ZM181.241 310.974C182.561 310.974 183.569 311.262 184.265 311.838C184.973 312.402 185.327 313.272 185.327 314.448V321H183.455L182.933 319.668H182.861C182.585 320.016 182.297 320.304 181.997 320.532C181.709 320.76 181.373 320.922 180.989 321.018C180.617 321.126 180.155 321.18 179.603 321.18C179.027 321.18 178.505 321.072 178.037 320.856C177.581 320.628 177.221 320.286 176.957 319.83C176.693 319.362 176.561 318.774 176.561 318.066C176.561 317.022 176.927 316.254 177.659 315.762C178.391 315.258 179.489 314.982 180.953 314.934L182.663 314.88V314.448C182.663 313.932 182.525 313.554 182.249 313.314C181.985 313.074 181.613 312.954 181.133 312.954C180.653 312.954 180.185 313.026 179.729 313.17C179.273 313.302 178.817 313.47 178.361 313.674L177.479 311.856C178.007 311.58 178.589 311.364 179.225 311.208C179.873 311.052 180.545 310.974 181.241 310.974ZM181.619 316.482C180.755 316.506 180.155 316.662 179.819 316.95C179.483 317.238 179.315 317.616 179.315 318.084C179.315 318.492 179.435 318.786 179.675 318.966C179.915 319.134 180.227 319.218 180.611 319.218C181.187 319.218 181.673 319.05 182.069 318.714C182.465 318.366 182.663 317.88 182.663 317.256V316.446L181.619 316.482ZM190.754 311.172V314.952H194.498V311.172H197.18V321H194.498V316.95H190.754V321H188.072V311.172H190.754ZM202.582 315.06C202.582 315.264 202.57 315.516 202.546 315.816C202.534 316.116 202.516 316.422 202.492 316.734C202.48 317.046 202.462 317.322 202.438 317.562C202.414 317.802 202.396 317.97 202.384 318.066L206.92 311.172H210.142V321H207.55V317.076C207.55 316.752 207.562 316.398 207.586 316.014C207.61 315.618 207.634 315.252 207.658 314.916C207.694 314.568 207.718 314.304 207.73 314.124L203.212 321H199.99V311.172H202.582V315.06ZM214.439 321H211.541L214.187 317.112C213.851 316.968 213.533 316.776 213.233 316.536C212.945 316.284 212.711 315.966 212.531 315.582C212.351 315.198 212.261 314.742 212.261 314.214C212.261 313.23 212.633 312.48 213.377 311.964C214.121 311.436 215.075 311.172 216.239 311.172H220.811V321H218.129V317.346H216.653L214.439 321ZM214.889 314.232C214.889 314.64 215.051 314.964 215.375 315.204C215.699 315.432 216.119 315.546 216.635 315.546H218.129V313.062H216.293C215.813 313.062 215.459 313.182 215.231 313.422C215.003 313.65 214.889 313.92 214.889 314.232Z" fill="#CCCCCC"/>
<path d="M73.0873 8.18262C73.0873 10.4326 71.183 12.2735 68.8554 12.2735C66.5278 12.2735 64.6235 10.4326 64.6235 8.18262H49.8117V16.3644C49.8117 18.6144 51.7161 20.4552 54.0436 20.4552H83.6672C85.9947 20.4552 87.8991 18.6144 87.8991 16.3644V8.18262H73.0873Z" fill="#90A4AE"/>
<path d="M68.8556 0C64.2005 0 60.3917 3.68179 60.3917 8.18175C60.3917 12.6817 64.2005 16.3635 68.8556 16.3635C73.5107 16.3635 77.3195 12.6817 77.3195 8.18175C77.3195 3.68179 73.5107 0 68.8556 0ZM68.8556 12.2726C66.528 12.2726 64.6237 10.4317 64.6237 8.18175C64.6237 5.93177 66.528 4.09088 68.8556 4.09088C71.1832 4.09088 73.0875 5.93177 73.0875 8.18175C73.0875 10.4317 71.1832 12.2726 68.8556 12.2726Z" fill="#90A4AE"/>
<path d="M94.2471 8.18262H73.0874C73.0874 10.4326 71.183 12.2735 68.8555 12.2735C66.5279 12.2735 64.6235 10.4326 64.6235 8.18262H43.4639C38.8087 8.18262 35 11.8644 35 16.3644V81.8184C35 86.3184 38.8087 90.0002 43.4639 90.0002H94.2471C98.9022 90.0002 102.711 86.3184 102.711 81.8184V16.3644C102.711 11.8644 98.9022 8.18262 94.2471 8.18262Z" fill="#455A64"/>
<path d="M94.2471 83.8623H43.4639C42.1943 83.8623 41.348 83.0441 41.348 81.8169V16.3628C41.348 15.1356 42.1943 14.3174 43.4639 14.3174H94.2471C95.5167 14.3174 96.3631 15.1356 96.3631 16.3628V81.8169C96.3631 83.0441 95.5167 83.8623 94.2471 83.8623Z" fill="white"/>
<path d="M82.8209 38.0444L63.7772 56.4534L54.8901 47.658L49.6002 52.7716L63.9888 66.476L88.1108 43.158L82.8209 38.0444Z" fill="#4CAF50"/>
<path d="M13.3865 115.556C13.3865 116.552 13.2605 117.458 13.0085 118.274C12.7685 119.078 12.3965 119.774 11.8925 120.362C11.4005 120.95 10.7645 121.4 9.98454 121.712C9.21654 122.024 8.31054 122.18 7.26654 122.18C6.22254 122.18 5.31054 122.024 4.53054 121.712C3.76254 121.388 3.12654 120.938 2.62254 120.362C2.13054 119.774 1.75854 119.072 1.50654 118.256C1.26654 117.44 1.14654 116.534 1.14654 115.538C1.14654 114.206 1.36254 113.048 1.79454 112.064C2.23854 111.08 2.91054 110.318 3.81054 109.778C4.72254 109.226 5.88054 108.95 7.28454 108.95C8.67654 108.95 9.82254 109.226 10.7225 109.778C11.6225 110.318 12.2885 111.086 12.7205 112.082C13.1645 113.066 13.3865 114.224 13.3865 115.556ZM4.00854 115.556C4.00854 116.456 4.12254 117.23 4.35054 117.878C4.57854 118.526 4.93254 119.024 5.41254 119.372C5.89254 119.72 6.51054 119.894 7.26654 119.894C8.04654 119.894 8.67054 119.72 9.13854 119.372C9.61854 119.024 9.96654 118.526 10.1825 117.878C10.4105 117.23 10.5245 116.456 10.5245 115.556C10.5245 114.2 10.2725 113.138 9.76854 112.37C9.26454 111.602 8.43654 111.218 7.28454 111.218C6.51654 111.218 5.89254 111.392 5.41254 111.74C4.93254 112.088 4.57854 112.586 4.35054 113.234C4.12254 113.882 4.00854 114.656 4.00854 115.556ZM15.2387 116.114C15.2387 114.662 15.4187 113.432 15.7787 112.424C16.1387 111.404 16.7087 110.594 17.4887 109.994C18.2687 109.382 19.2887 108.968 20.5487 108.752C21.1847 108.644 21.8267 108.554 22.4747 108.482C23.1347 108.398 23.8127 108.314 24.5087 108.23L24.8147 110.57C24.5147 110.606 24.1847 110.648 23.8247 110.696C23.4647 110.732 23.0987 110.774 22.7267 110.822C22.3667 110.858 22.0187 110.9 21.6827 110.948C21.3467 110.996 21.0407 111.038 20.7647 111.074C20.3207 111.146 19.9307 111.248 19.5947 111.38C19.2587 111.5 18.9767 111.674 18.7487 111.902C18.5207 112.13 18.3407 112.442 18.2087 112.838C18.0887 113.222 18.0107 113.72 17.9747 114.332H18.1007C18.2447 114.104 18.4427 113.876 18.6947 113.648C18.9587 113.42 19.2827 113.228 19.6667 113.072C20.0507 112.916 20.4887 112.838 20.9807 112.838C21.7607 112.838 22.4387 113 23.0147 113.324C23.5907 113.648 24.0347 114.128 24.3467 114.764C24.6587 115.4 24.8147 116.192 24.8147 117.14C24.8147 118.256 24.6107 119.186 24.2027 119.93C23.7947 120.674 23.2307 121.238 22.5107 121.622C21.7907 121.994 20.9567 122.18 20.0087 122.18C19.2887 122.18 18.6347 122.048 18.0467 121.784C17.4587 121.52 16.9547 121.13 16.5347 120.614C16.1147 120.098 15.7907 119.462 15.5627 118.706C15.3467 117.95 15.2387 117.086 15.2387 116.114ZM20.1707 120.002C20.5547 120.002 20.8847 119.918 21.1607 119.75C21.4487 119.582 21.6707 119.306 21.8267 118.922C21.9947 118.538 22.0787 118.022 22.0787 117.374C22.0787 116.594 21.9467 115.976 21.6827 115.52C21.4307 115.052 20.9867 114.818 20.3507 114.818C19.9667 114.818 19.6067 114.914 19.2707 115.106C18.9467 115.286 18.6707 115.496 18.4427 115.736C18.2147 115.964 18.0587 116.162 17.9747 116.33C17.9747 116.798 18.0107 117.254 18.0827 117.698C18.1547 118.13 18.2747 118.52 18.4427 118.868C18.6107 119.216 18.8327 119.492 19.1087 119.696C19.3967 119.9 19.7507 120.002 20.1707 120.002ZM31.026 122.18C30.054 122.18 29.226 122.006 28.542 121.658C27.858 121.298 27.336 120.746 26.976 120.002C26.616 119.258 26.436 118.304 26.436 117.14C26.436 115.94 26.64 114.962 27.048 114.206C27.456 113.45 28.02 112.892 28.74 112.532C29.472 112.172 30.312 111.992 31.26 111.992C31.932 111.992 32.514 112.058 33.006 112.19C33.51 112.322 33.948 112.478 34.32 112.658L33.528 114.728C33.108 114.56 32.712 114.422 32.34 114.314C31.98 114.206 31.62 114.152 31.26 114.152C30.792 114.152 30.402 114.266 30.09 114.494C29.778 114.71 29.544 115.04 29.388 115.484C29.244 115.916 29.172 116.462 29.172 117.122C29.172 117.77 29.25 118.31 29.406 118.742C29.574 119.162 29.814 119.48 30.126 119.696C30.438 119.9 30.816 120.002 31.26 120.002C31.824 120.002 32.322 119.93 32.754 119.786C33.186 119.63 33.606 119.42 34.014 119.156V121.442C33.606 121.706 33.174 121.892 32.718 122C32.274 122.12 31.71 122.18 31.026 122.18ZM45.0781 122H42.3961V114.188H39.9301C39.8101 115.628 39.6601 116.858 39.4801 117.878C39.3121 118.886 39.0961 119.708 38.8321 120.344C38.5801 120.98 38.2561 121.448 37.8601 121.748C37.4641 122.036 36.9781 122.18 36.4021 122.18C36.0901 122.18 35.8081 122.156 35.5561 122.108C35.3041 122.06 35.0761 121.988 34.8721 121.892V119.75C35.0041 119.798 35.1421 119.84 35.2861 119.876C35.4301 119.912 35.5801 119.93 35.7361 119.93C35.9041 119.93 36.0601 119.864 36.2041 119.732C36.3601 119.6 36.5041 119.366 36.6361 119.03C36.7801 118.694 36.9121 118.232 37.0321 117.644C37.1521 117.056 37.2601 116.318 37.3561 115.43C37.4641 114.53 37.5601 113.444 37.6441 112.172H45.0781V122ZM51.9276 111.992C52.8396 111.992 53.6196 112.166 54.2676 112.514C54.9276 112.862 55.4376 113.366 55.7976 114.026C56.1576 114.686 56.3376 115.496 56.3376 116.456V117.752H50.0016C50.0256 118.508 50.2476 119.102 50.6676 119.534C51.0996 119.966 51.6936 120.182 52.4496 120.182C53.0856 120.182 53.6616 120.122 54.1776 120.002C54.6936 119.87 55.2276 119.672 55.7796 119.408V121.478C55.2996 121.718 54.7896 121.892 54.2496 122C53.7216 122.12 53.0796 122.18 52.3236 122.18C51.3396 122.18 50.4696 122 49.7136 121.64C48.9576 121.268 48.3636 120.71 47.9316 119.966C47.4996 119.222 47.2836 118.286 47.2836 117.158C47.2836 116.006 47.4756 115.052 47.8596 114.296C48.2556 113.528 48.8016 112.952 49.4976 112.568C50.1936 112.184 51.0036 111.992 51.9276 111.992ZM51.9456 113.9C51.4296 113.9 50.9976 114.068 50.6496 114.404C50.3136 114.74 50.1156 115.262 50.0556 115.97H53.8176C53.8176 115.574 53.7456 115.22 53.6016 114.908C53.4696 114.596 53.2656 114.35 52.9896 114.17C52.7136 113.99 52.3656 113.9 51.9456 113.9ZM67.3504 112.172V120.038H68.7904V125.528H66.3784V122H59.7724V125.528H57.3604V120.038H58.1884C58.6204 119.378 58.9864 118.628 59.2864 117.788C59.5864 116.936 59.8264 116.03 60.0064 115.07C60.1864 114.11 60.3184 113.144 60.4024 112.172H67.3504ZM62.6524 114.188C62.5564 114.908 62.4364 115.61 62.2924 116.294C62.1484 116.966 61.9684 117.614 61.7524 118.238C61.5484 118.862 61.2964 119.462 60.9964 120.038H64.6684V114.188H62.6524ZM79.3935 117.068C79.3935 117.884 79.2795 118.61 79.0515 119.246C78.8355 119.882 78.5175 120.422 78.0975 120.866C77.6895 121.298 77.1915 121.628 76.6035 121.856C76.0155 122.072 75.3495 122.18 74.6055 122.18C73.9215 122.18 73.2855 122.072 72.6975 121.856C72.1215 121.628 71.6235 121.298 71.2035 120.866C70.7835 120.422 70.4535 119.882 70.2135 119.246C69.9855 118.61 69.8715 117.884 69.8715 117.068C69.8715 115.976 70.0635 115.058 70.4475 114.314C70.8315 113.558 71.3835 112.982 72.1035 112.586C72.8235 112.19 73.6755 111.992 74.6595 111.992C75.5835 111.992 76.3995 112.19 77.1075 112.586C77.8155 112.982 78.3735 113.558 78.7815 114.314C79.1895 115.058 79.3935 115.976 79.3935 117.068ZM72.6075 117.068C72.6075 117.716 72.6735 118.262 72.8055 118.706C72.9495 119.138 73.1715 119.468 73.4715 119.696C73.7715 119.912 74.1615 120.02 74.6415 120.02C75.1215 120.02 75.5055 119.912 75.7935 119.696C76.0935 119.468 76.3095 119.138 76.4415 118.706C76.5855 118.262 76.6575 117.716 76.6575 117.068C76.6575 116.42 76.5855 115.88 76.4415 115.448C76.3095 115.016 76.0935 114.692 75.7935 114.476C75.4935 114.26 75.1035 114.152 74.6235 114.152C73.9155 114.152 73.3995 114.398 73.0755 114.89C72.7635 115.37 72.6075 116.096 72.6075 117.068ZM90.3221 114.746C90.3221 115.274 90.1541 115.724 89.8181 116.096C89.4941 116.468 89.0081 116.708 88.3601 116.816V116.888C89.0441 116.972 89.5901 117.206 89.9981 117.59C90.4181 117.974 90.6281 118.466 90.6281 119.066C90.6281 119.486 90.5441 119.876 90.3761 120.236C90.2201 120.596 89.9681 120.908 89.6201 121.172C89.2721 121.436 88.8221 121.64 88.2701 121.784C87.7301 121.928 87.0701 122 86.2901 122H81.6101V112.172H86.2901C87.0581 112.172 87.7421 112.256 88.3421 112.424C88.9541 112.58 89.4341 112.844 89.7821 113.216C90.1421 113.588 90.3221 114.098 90.3221 114.746ZM87.8561 118.922C87.8561 118.538 87.7061 118.262 87.4061 118.094C87.1061 117.914 86.6561 117.824 86.0561 117.824H84.2921V120.146H86.1101C86.6141 120.146 87.0281 120.056 87.3521 119.876C87.6881 119.684 87.8561 119.366 87.8561 118.922ZM87.6041 114.962C87.6041 114.65 87.4841 114.422 87.2441 114.278C87.0041 114.134 86.6501 114.062 86.1821 114.062H84.2921V116.006H85.8761C86.4401 116.006 86.8661 115.928 87.1541 115.772C87.4541 115.604 87.6041 115.334 87.6041 114.962ZM96.9624 111.974C98.2824 111.974 99.2904 112.262 99.9864 112.838C100.694 113.402 101.048 114.272 101.048 115.448V122H99.1764L98.6544 120.668H98.5824C98.3064 121.016 98.0184 121.304 97.7184 121.532C97.4304 121.76 97.0944 121.922 96.7104 122.018C96.3384 122.126 95.8764 122.18 95.3244 122.18C94.7484 122.18 94.2264 122.072 93.7584 121.856C93.3024 121.628 92.9424 121.286 92.6784 120.83C92.4144 120.362 92.2824 119.774 92.2824 119.066C92.2824 118.022 92.6484 117.254 93.3804 116.762C94.1124 116.258 95.2104 115.982 96.6744 115.934L98.3844 115.88V115.448C98.3844 114.932 98.2464 114.554 97.9704 114.314C97.7064 114.074 97.3344 113.954 96.8544 113.954C96.3744 113.954 95.9064 114.026 95.4504 114.17C94.9944 114.302 94.5384 114.47 94.0824 114.674L93.2004 112.856C93.7284 112.58 94.3104 112.364 94.9464 112.208C95.5944 112.052 96.2664 111.974 96.9624 111.974ZM97.3404 117.482C96.4764 117.506 95.8764 117.662 95.5404 117.95C95.2044 118.238 95.0364 118.616 95.0364 119.084C95.0364 119.492 95.1564 119.786 95.3964 119.966C95.6364 120.134 95.9484 120.218 96.3324 120.218C96.9084 120.218 97.3944 120.05 97.7904 119.714C98.1864 119.366 98.3844 118.88 98.3844 118.256V117.446L97.3404 117.482ZM106.476 112.172V115.952H110.22V112.172H112.902V122H110.22V117.95H106.476V122H103.794V112.172H106.476ZM118.304 116.06C118.304 116.264 118.292 116.516 118.268 116.816C118.256 117.116 118.238 117.422 118.214 117.734C118.202 118.046 118.184 118.322 118.16 118.562C118.136 118.802 118.118 118.97 118.106 119.066L122.642 112.172H125.864V122H123.272V118.076C123.272 117.752 123.284 117.398 123.308 117.014C123.332 116.618 123.356 116.252 123.38 115.916C123.416 115.568 123.44 115.304 123.452 115.124L118.934 122H115.712V112.172H118.304V116.06ZM132.717 111.992C133.629 111.992 134.409 112.166 135.057 112.514C135.717 112.862 136.227 113.366 136.587 114.026C136.947 114.686 137.127 115.496 137.127 116.456V117.752H130.791C130.815 118.508 131.037 119.102 131.457 119.534C131.889 119.966 132.483 120.182 133.239 120.182C133.875 120.182 134.451 120.122 134.967 120.002C135.483 119.87 136.017 119.672 136.569 119.408V121.478C136.089 121.718 135.579 121.892 135.039 122C134.511 122.12 133.869 122.18 133.113 122.18C132.129 122.18 131.259 122 130.503 121.64C129.747 121.268 129.153 120.71 128.721 119.966C128.289 119.222 128.073 118.286 128.073 117.158C128.073 116.006 128.265 115.052 128.649 114.296C129.045 113.528 129.591 112.952 130.287 112.568C130.983 112.184 131.793 111.992 132.717 111.992ZM132.735 113.9C132.219 113.9 131.787 114.068 131.439 114.404C131.103 114.74 130.905 115.262 130.845 115.97H134.607C134.607 115.574 134.535 115.22 134.391 114.908C134.259 114.596 134.055 114.35 133.779 114.17C133.503 113.99 133.155 113.9 132.735 113.9Z" fill="#CCCCCC"/>
<path d="M299 0C297.408 1.89574e-05 295.882 0.631984 294.756 1.75687C293.631 2.88176 292.998 4.40742 292.998 5.99824V9.00029H239.002C237.41 9.00031 235.883 9.63223 234.758 10.7571C233.632 11.8819 233 13.4075 233 14.9982C233 15.7859 233.155 16.5659 233.457 17.2937C233.758 18.0214 234.201 18.6826 234.758 19.2396C235.315 19.7966 235.977 20.2384 236.705 20.5399C237.433 20.8413 238.214 20.9965 239.002 20.9965H292.998V24.002C292.998 25.5929 293.631 27.1185 294.756 28.2434C295.882 29.3683 297.408 30.0003 299 30.0003C300.592 30.0003 302.118 29.3683 303.244 28.2434C304.369 27.1185 305.002 25.5929 305.002 24.002V20.9965H316.998C317.786 20.9965 318.567 20.8414 319.295 20.54C320.023 20.2385 320.685 19.7967 321.242 19.2397C321.799 18.6827 322.241 18.0215 322.543 17.2937C322.845 16.566 323 15.786 323 14.9982C323 14.2105 322.845 13.4306 322.543 12.7029C322.241 11.9751 321.799 11.3139 321.242 10.757C320.685 10.2 320.023 9.75819 319.295 9.45679C318.567 9.15538 317.786 9.00026 316.998 9.00029H305.002V5.99824C305.002 4.40742 304.369 2.88176 303.244 1.75687C302.118 0.631984 300.592 1.89574e-05 299 0ZM255.5 30C254.712 30 253.931 30.1551 253.203 30.4565C252.475 30.7579 251.813 31.1998 251.256 31.7568C250.699 32.3138 250.256 32.975 249.955 33.7028C249.653 34.4305 249.498 35.2105 249.498 35.9982V39H239.004C238.215 39 237.435 39.1552 236.707 39.4566C235.979 39.758 235.317 40.1999 234.76 40.7569C234.202 41.3139 233.76 41.9751 233.459 42.7028C233.157 43.4306 233.002 44.2105 233.002 44.9982C233.002 45.7859 233.157 46.5659 233.459 47.2937C233.76 48.0214 234.202 48.6826 234.76 49.2396C235.317 49.7966 235.979 50.2384 236.707 50.5399C237.435 50.8413 238.215 50.9965 239.004 50.9965H249.498V54.002C249.498 54.7898 249.653 55.5698 249.955 56.2975C250.256 57.0253 250.699 57.6865 251.256 58.2435C251.813 58.8005 252.475 59.2423 253.203 59.5438C253.931 59.8452 254.712 60.0003 255.5 60.0003C257.092 60.0003 258.618 59.3683 259.744 58.2434C260.869 57.1185 261.502 55.5929 261.502 54.002V50.9965H317C317.788 50.9965 318.569 50.8413 319.297 50.5399C320.025 50.2384 320.687 49.7966 321.244 49.2396C321.801 48.6826 322.243 48.0214 322.545 47.2937C322.846 46.5659 323.002 45.7859 323.002 44.9982C323.002 44.2105 322.846 43.4306 322.545 42.7028C322.243 41.9751 321.801 41.3139 321.244 40.7569C320.687 40.1999 320.025 39.758 319.297 39.4566C318.569 39.1552 317.788 39 317 39H261.502V35.9982C261.502 34.4074 260.869 32.8818 259.744 31.7569C258.618 30.632 257.092 30 255.5 30ZM275 60.0003C273.408 60.0003 271.882 60.6322 270.756 61.7571C269.631 62.8819 268.998 64.4075 268.998 65.9982V69H239.004C238.215 69 237.435 69.1552 236.707 69.4566C235.979 69.758 235.317 70.1999 234.76 70.7569C234.202 71.3139 233.76 71.9751 233.459 72.7028C233.157 73.4306 233.002 74.2105 233.002 74.9982C233.002 76.589 233.634 78.1146 234.76 79.2394C235.885 80.3643 237.412 80.9962 239.004 80.9962H268.998V84.002C268.998 85.5928 269.631 87.1184 270.756 88.2432C271.882 89.3681 273.408 90 275 90C276.592 90 278.118 89.3681 279.244 88.2432C280.369 87.1184 281.002 85.5928 281.002 84.002V80.9962H317C318.592 80.9962 320.118 80.3643 321.244 79.2394C322.369 78.1146 323.002 76.589 323.002 74.9982C323.002 74.2105 322.846 73.4306 322.545 72.7028C322.243 71.9751 321.801 71.3139 321.244 70.7569C320.687 70.1999 320.025 69.758 319.297 69.4566C318.569 69.1552 317.788 69 317 69H281.002V65.9982C281.002 64.4075 280.369 62.8819 279.244 61.7571C278.118 60.6322 276.592 60.0003 275 60.0003Z" fill="white"/>
<path d="M239.49 122H236.772V116.456H231.678V122H228.96V109.148H231.678V114.188H236.772V109.148H239.49V122ZM246.54 111.974C247.86 111.974 248.868 112.262 249.564 112.838C250.272 113.402 250.626 114.272 250.626 115.448V122H248.754L248.232 120.668H248.16C247.884 121.016 247.596 121.304 247.296 121.532C247.008 121.76 246.672 121.922 246.288 122.018C245.916 122.126 245.454 122.18 244.902 122.18C244.326 122.18 243.804 122.072 243.336 121.856C242.88 121.628 242.52 121.286 242.256 120.83C241.992 120.362 241.86 119.774 241.86 119.066C241.86 118.022 242.226 117.254 242.958 116.762C243.69 116.258 244.788 115.982 246.252 115.934L247.962 115.88V115.448C247.962 114.932 247.824 114.554 247.548 114.314C247.284 114.074 246.912 113.954 246.432 113.954C245.952 113.954 245.484 114.026 245.028 114.17C244.572 114.302 244.116 114.47 243.66 114.674L242.778 112.856C243.306 112.58 243.888 112.364 244.524 112.208C245.172 112.052 245.844 111.974 246.54 111.974ZM246.918 117.482C246.054 117.506 245.454 117.662 245.118 117.95C244.782 118.238 244.614 118.616 244.614 119.084C244.614 119.492 244.734 119.786 244.974 119.966C245.214 120.134 245.526 120.218 245.91 120.218C246.486 120.218 246.972 120.05 247.368 119.714C247.764 119.366 247.962 118.88 247.962 118.256V117.446L246.918 117.482ZM257.367 122.18C256.395 122.18 255.567 122.006 254.883 121.658C254.199 121.298 253.677 120.746 253.317 120.002C252.957 119.258 252.777 118.304 252.777 117.14C252.777 115.94 252.981 114.962 253.389 114.206C253.797 113.45 254.361 112.892 255.081 112.532C255.813 112.172 256.653 111.992 257.601 111.992C258.273 111.992 258.855 112.058 259.347 112.19C259.851 112.322 260.289 112.478 260.661 112.658L259.869 114.728C259.449 114.56 259.053 114.422 258.681 114.314C258.321 114.206 257.961 114.152 257.601 114.152C257.133 114.152 256.743 114.266 256.431 114.494C256.119 114.71 255.885 115.04 255.729 115.484C255.585 115.916 255.513 116.462 255.513 117.122C255.513 117.77 255.591 118.31 255.747 118.742C255.915 119.162 256.155 119.48 256.467 119.696C256.779 119.9 257.157 120.002 257.601 120.002C258.165 120.002 258.663 119.93 259.095 119.786C259.527 119.63 259.947 119.42 260.355 119.156V121.442C259.947 121.706 259.515 121.892 259.059 122C258.615 122.12 258.051 122.18 257.367 122.18ZM270.753 114.188H267.531V122H264.849V114.188H261.627V112.172H270.753V114.188ZM278.038 111.992C279.142 111.992 280.036 112.424 280.72 113.288C281.404 114.14 281.746 115.4 281.746 117.068C281.746 118.184 281.584 119.126 281.26 119.894C280.936 120.65 280.492 121.22 279.928 121.604C279.364 121.988 278.71 122.18 277.966 122.18C277.498 122.18 277.09 122.12 276.742 122C276.406 121.88 276.118 121.724 275.878 121.532C275.638 121.34 275.428 121.136 275.248 120.92H275.104C275.152 121.148 275.188 121.388 275.212 121.64C275.236 121.88 275.248 122.12 275.248 122.36V126.32H272.566V112.172H274.744L275.122 113.45H275.248C275.428 113.186 275.644 112.946 275.896 112.73C276.148 112.502 276.448 112.322 276.796 112.19C277.156 112.058 277.57 111.992 278.038 111.992ZM277.174 114.134C276.706 114.134 276.334 114.23 276.058 114.422C275.782 114.614 275.578 114.908 275.446 115.304C275.326 115.688 275.26 116.174 275.248 116.762V117.05C275.248 117.686 275.308 118.226 275.428 118.67C275.548 119.102 275.752 119.432 276.04 119.66C276.328 119.888 276.718 120.002 277.21 120.002C277.618 120.002 277.954 119.888 278.218 119.66C278.482 119.432 278.68 119.096 278.812 118.652C278.944 118.208 279.01 117.668 279.01 117.032C279.01 116.072 278.86 115.352 278.56 114.872C278.272 114.38 277.81 114.134 277.174 114.134ZM292.885 117.068C292.885 117.884 292.771 118.61 292.543 119.246C292.327 119.882 292.009 120.422 291.589 120.866C291.181 121.298 290.683 121.628 290.095 121.856C289.507 122.072 288.841 122.18 288.097 122.18C287.413 122.18 286.777 122.072 286.189 121.856C285.613 121.628 285.115 121.298 284.695 120.866C284.275 120.422 283.945 119.882 283.705 119.246C283.477 118.61 283.363 117.884 283.363 117.068C283.363 115.976 283.555 115.058 283.939 114.314C284.323 113.558 284.875 112.982 285.595 112.586C286.315 112.19 287.167 111.992 288.151 111.992C289.075 111.992 289.891 112.19 290.599 112.586C291.307 112.982 291.865 113.558 292.273 114.314C292.681 115.058 292.885 115.976 292.885 117.068ZM286.099 117.068C286.099 117.716 286.165 118.262 286.297 118.706C286.441 119.138 286.663 119.468 286.963 119.696C287.263 119.912 287.653 120.02 288.133 120.02C288.613 120.02 288.997 119.912 289.285 119.696C289.585 119.468 289.801 119.138 289.933 118.706C290.077 118.262 290.149 117.716 290.149 117.068C290.149 116.42 290.077 115.88 289.933 115.448C289.801 115.016 289.585 114.692 289.285 114.476C288.985 114.26 288.595 114.152 288.115 114.152C287.407 114.152 286.891 114.398 286.567 114.89C286.255 115.37 286.099 116.096 286.099 117.068ZM304.515 107.942C304.455 108.566 304.281 109.118 303.993 109.598C303.705 110.066 303.255 110.432 302.643 110.696C302.031 110.96 301.209 111.092 300.177 111.092C299.121 111.092 298.293 110.966 297.693 110.714C297.105 110.45 296.685 110.084 296.433 109.616C296.181 109.148 296.031 108.59 295.983 107.942H298.377C298.437 108.602 298.605 109.04 298.881 109.256C299.157 109.472 299.607 109.58 300.231 109.58C300.747 109.58 301.167 109.466 301.491 109.238C301.827 108.998 302.025 108.566 302.085 107.942H304.515ZM297.693 116.06C297.693 116.264 297.681 116.516 297.657 116.816C297.645 117.116 297.627 117.422 297.603 117.734C297.591 118.046 297.573 118.322 297.549 118.562C297.525 118.802 297.507 118.97 297.495 119.066L302.031 112.172H305.253V122H302.661V118.076C302.661 117.752 302.673 117.398 302.697 117.014C302.721 116.618 302.745 116.252 302.769 115.916C302.805 115.568 302.829 115.304 302.841 115.124L298.323 122H295.101V112.172H297.693V116.06ZM314.5 112.172H317.452L313.564 116.888L317.794 122H314.752L310.738 117.014V122H308.056V112.172H310.738V116.942L314.5 112.172ZM323.233 111.974C324.553 111.974 325.561 112.262 326.257 112.838C326.965 113.402 327.319 114.272 327.319 115.448V122H325.447L324.925 120.668H324.853C324.577 121.016 324.289 121.304 323.989 121.532C323.701 121.76 323.365 121.922 322.981 122.018C322.609 122.126 322.147 122.18 321.595 122.18C321.019 122.18 320.497 122.072 320.029 121.856C319.573 121.628 319.213 121.286 318.949 120.83C318.685 120.362 318.553 119.774 318.553 119.066C318.553 118.022 318.919 117.254 319.651 116.762C320.383 116.258 321.481 115.982 322.945 115.934L324.655 115.88V115.448C324.655 114.932 324.517 114.554 324.241 114.314C323.977 114.074 323.605 113.954 323.125 113.954C322.645 113.954 322.177 114.026 321.721 114.17C321.265 114.302 320.809 114.47 320.353 114.674L319.471 112.856C319.999 112.58 320.581 112.364 321.217 112.208C321.865 112.052 322.537 111.974 323.233 111.974ZM323.611 117.482C322.747 117.506 322.147 117.662 321.811 117.95C321.475 118.238 321.307 118.616 321.307 119.084C321.307 119.492 321.427 119.786 321.667 119.966C321.907 120.134 322.219 120.218 322.603 120.218C323.179 120.218 323.665 120.05 324.061 119.714C324.457 119.366 324.655 118.88 324.655 118.256V117.446L323.611 117.482Z" fill="#CCCCCC"/>
<path fill-rule="evenodd" clip-rule="evenodd" d="M523.1 36.81C521.705 22.5 513.245 0 487.1 0C460.955 0 452.495 22.5 451.1 36.81C446.207 38.6673 442.979 43.3658 443 48.6V54.9C443 61.8588 448.641 67.5 455.6 67.5C462.559 67.5 468.2 61.8588 468.2 54.9V48.6C468.178 43.4787 465.068 38.8768 460.325 36.945C461.225 28.665 465.635 9 487.1 9C508.565 9 512.93 28.665 513.83 36.945C509.097 38.881 506.003 43.486 506 48.6V54.9C506.02 59.7374 508.797 64.1398 513.155 66.24C511.265 69.795 506.45 74.61 494.615 76.05C492.249 72.4576 487.672 71.0414 483.691 72.67C479.71 74.2986 477.438 78.5166 478.268 82.7371C479.098 86.9576 482.799 90 487.1 90C490.499 89.9812 493.598 88.049 495.11 85.005C514.415 82.8 520.58 72.855 522.515 67.005C527.75 65.3093 531.271 60.4023 531.2 54.9V48.6C531.222 43.3658 527.994 38.6673 523.1 36.81ZM459.2 54.9C459.2 56.8882 457.588 58.5 455.6 58.5C453.612 58.5 452 56.8882 452 54.9V48.6C452 47.3138 452.686 46.1254 453.8 45.4823C454.914 44.8392 456.286 44.8392 457.4 45.4823C458.514 46.1254 459.2 47.3138 459.2 48.6V54.9ZM515 48.6C515 46.6118 516.612 45 518.6 45C520.589 45 522.2 46.6118 522.2 48.6V54.9C522.2 56.8882 520.589 58.5 518.6 58.5C516.612 58.5 515 56.8882 515 54.9V48.6Z" fill="white"/>
<path d="M424.876 122H422.158V111.416H418.666V109.148H428.368V111.416H424.876V122ZM432.918 111.992C433.83 111.992 434.61 112.166 435.258 112.514C435.918 112.862 436.428 113.366 436.788 114.026C437.148 114.686 437.328 115.496 437.328 116.456V117.752H430.992C431.016 118.508 431.238 119.102 431.658 119.534C432.09 119.966 432.684 120.182 433.44 120.182C434.076 120.182 434.652 120.122 435.168 120.002C435.684 119.87 436.218 119.672 436.77 119.408V121.478C436.29 121.718 435.78 121.892 435.24 122C434.712 122.12 434.07 122.18 433.314 122.18C432.33 122.18 431.46 122 430.704 121.64C429.948 121.268 429.354 120.71 428.922 119.966C428.49 119.222 428.274 118.286 428.274 117.158C428.274 116.006 428.466 115.052 428.85 114.296C429.246 113.528 429.792 112.952 430.488 112.568C431.184 112.184 431.994 111.992 432.918 111.992ZM432.936 113.9C432.42 113.9 431.988 114.068 431.64 114.404C431.304 114.74 431.106 115.262 431.046 115.97H434.808C434.808 115.574 434.736 115.22 434.592 114.908C434.46 114.596 434.256 114.35 433.98 114.17C433.704 113.99 433.356 113.9 432.936 113.9ZM441.519 116.978L438.351 112.172H441.393L443.301 115.304L445.227 112.172H448.269L445.065 116.978L448.413 122H445.371L443.301 118.634L441.231 122H438.189L441.519 116.978ZM458.837 112.172V122H456.155V114.188H452.591V122H449.909V112.172H458.837ZM470.579 117.068C470.579 117.884 470.465 118.61 470.237 119.246C470.021 119.882 469.703 120.422 469.283 120.866C468.875 121.298 468.377 121.628 467.789 121.856C467.201 122.072 466.535 122.18 465.791 122.18C465.107 122.18 464.471 122.072 463.883 121.856C463.307 121.628 462.809 121.298 462.389 120.866C461.969 120.422 461.639 119.882 461.399 119.246C461.171 118.61 461.057 117.884 461.057 117.068C461.057 115.976 461.249 115.058 461.633 114.314C462.017 113.558 462.569 112.982 463.289 112.586C464.009 112.19 464.861 111.992 465.845 111.992C466.769 111.992 467.585 112.19 468.293 112.586C469.001 112.982 469.559 113.558 469.967 114.314C470.375 115.058 470.579 115.976 470.579 117.068ZM463.793 117.068C463.793 117.716 463.859 118.262 463.991 118.706C464.135 119.138 464.357 119.468 464.657 119.696C464.957 119.912 465.347 120.02 465.827 120.02C466.307 120.02 466.691 119.912 466.979 119.696C467.279 119.468 467.495 119.138 467.627 118.706C467.771 118.262 467.843 117.716 467.843 117.068C467.843 116.42 467.771 115.88 467.627 115.448C467.495 115.016 467.279 114.692 466.979 114.476C466.679 114.26 466.289 114.152 465.809 114.152C465.101 114.152 464.585 114.398 464.261 114.89C463.949 115.37 463.793 116.096 463.793 117.068ZM481.634 112.172V120.038H483.074V125.528H480.662V122H474.056V125.528H471.644V120.038H472.472C472.904 119.378 473.27 118.628 473.57 117.788C473.87 116.936 474.11 116.03 474.29 115.07C474.47 114.11 474.602 113.144 474.686 112.172H481.634ZM476.936 114.188C476.84 114.908 476.72 115.61 476.576 116.294C476.432 116.966 476.252 117.614 476.036 118.238C475.832 118.862 475.58 119.462 475.28 120.038H478.952V114.188H476.936ZM493.587 112.172V120.038H495.027V125.528H492.615V122H486.009V125.528H483.597V120.038H484.425C484.857 119.378 485.223 118.628 485.523 117.788C485.823 116.936 486.063 116.03 486.243 115.07C486.423 114.11 486.555 113.144 486.639 112.172H493.587ZM488.889 114.188C488.793 114.908 488.673 115.61 488.529 116.294C488.385 116.966 488.205 117.614 487.989 118.238C487.785 118.862 487.533 119.462 487.233 120.038H490.905V114.188H488.889ZM500.752 111.992C501.664 111.992 502.444 112.166 503.092 112.514C503.752 112.862 504.262 113.366 504.622 114.026C504.982 114.686 505.162 115.496 505.162 116.456V117.752H498.826C498.85 118.508 499.072 119.102 499.492 119.534C499.924 119.966 500.518 120.182 501.274 120.182C501.91 120.182 502.486 120.122 503.002 120.002C503.518 119.87 504.052 119.672 504.604 119.408V121.478C504.124 121.718 503.614 121.892 503.074 122C502.546 122.12 501.904 122.18 501.148 122.18C500.164 122.18 499.294 122 498.538 121.64C497.782 121.268 497.188 120.71 496.756 119.966C496.324 119.222 496.108 118.286 496.108 117.158C496.108 116.006 496.3 115.052 496.684 114.296C497.08 113.528 497.626 112.952 498.322 112.568C499.018 112.184 499.828 111.992 500.752 111.992ZM500.77 113.9C500.254 113.9 499.822 114.068 499.474 114.404C499.138 114.74 498.94 115.262 498.88 115.97H502.642C502.642 115.574 502.57 115.22 502.426 114.908C502.294 114.596 502.09 114.35 501.814 114.17C501.538 113.99 501.19 113.9 500.77 113.9ZM512.809 111.992C513.913 111.992 514.807 112.424 515.491 113.288C516.175 114.14 516.517 115.4 516.517 117.068C516.517 118.184 516.355 119.126 516.031 119.894C515.707 120.65 515.263 121.22 514.699 121.604C514.135 121.988 513.481 122.18 512.737 122.18C512.269 122.18 511.861 122.12 511.513 122C511.177 121.88 510.889 121.724 510.649 121.532C510.409 121.34 510.199 121.136 510.019 120.92H509.875C509.923 121.148 509.959 121.388 509.983 121.64C510.007 121.88 510.019 122.12 510.019 122.36V126.32H507.337V112.172H509.515L509.893 113.45H510.019C510.199 113.186 510.415 112.946 510.667 112.73C510.919 112.502 511.219 112.322 511.567 112.19C511.927 112.058 512.341 111.992 512.809 111.992ZM511.945 114.134C511.477 114.134 511.105 114.23 510.829 114.422C510.553 114.614 510.349 114.908 510.217 115.304C510.097 115.688 510.031 116.174 510.019 116.762V117.05C510.019 117.686 510.079 118.226 510.199 118.67C510.319 119.102 510.523 119.432 510.811 119.66C511.099 119.888 511.489 120.002 511.981 120.002C512.389 120.002 512.725 119.888 512.989 119.66C513.253 119.432 513.451 119.096 513.583 118.652C513.715 118.208 513.781 117.668 513.781 117.032C513.781 116.072 513.631 115.352 513.331 114.872C513.043 114.38 512.581 114.134 511.945 114.134ZM532.344 112.172L528.726 116.888L532.686 122H529.824L526.08 117.014V122H523.578V117.014L519.834 122H516.972L520.932 116.888L517.314 112.172H520.086L523.578 116.942V112.172H526.08V116.942L529.572 112.172H532.344ZM540.535 112.172H543.487L539.599 116.888L543.829 122H540.787L536.773 117.014V122H534.091V112.172H536.773V116.942L540.535 112.172ZM549.267 111.974C550.587 111.974 551.595 112.262 552.291 112.838C552.999 113.402 553.353 114.272 553.353 115.448V122H551.481L550.959 120.668H550.887C550.611 121.016 550.323 121.304 550.023 121.532C549.735 121.76 549.399 121.922 549.015 122.018C548.643 122.126 548.181 122.18 547.629 122.18C547.053 122.18 546.531 122.072 546.063 121.856C545.607 121.628 545.247 121.286 544.983 120.83C544.719 120.362 544.587 119.774 544.587 119.066C544.587 118.022 544.953 117.254 545.685 116.762C546.417 116.258 547.515 115.982 548.979 115.934L550.689 115.88V115.448C550.689 114.932 550.551 114.554 550.275 114.314C550.011 114.074 549.639 113.954 549.159 113.954C548.679 113.954 548.211 114.026 547.755 114.17C547.299 114.302 546.843 114.47 546.387 114.674L545.505 112.856C546.033 112.58 546.615 112.364 547.251 112.208C547.899 112.052 548.571 111.974 549.267 111.974ZM549.645 117.482C548.781 117.506 548.181 117.662 547.845 117.95C547.509 118.238 547.341 118.616 547.341 119.084C547.341 119.492 547.461 119.786 547.701 119.966C547.941 120.134 548.253 120.218 548.637 120.218C549.213 120.218 549.699 120.05 550.095 119.714C550.491 119.366 550.689 118.88 550.689 118.256V117.446L549.645 117.482Z" fill="#CCCCCC"/>
<g filter="url(#filter0_i_403_16)">
<path fill-rule="evenodd" clip-rule="evenodd" d="M48.6911 147.77C48.215 146.301 47.5181 144.797 46.5414 143.243L50.2792 141C51.4323 142.835 52.2829 144.656 52.8728 146.476L48.6911 147.77ZM46.16 167.941C47.4443 164.252 48.57 160.912 49.1503 157.663L53.4715 158.4C52.8239 162.026 51.5845 165.668 50.3128 169.322L46.16 167.941ZM41 189.969C41.1596 185.903 41.8416 182.145 42.75 178.636L47.0025 179.687C46.1492 182.984 45.5283 186.437 45.3833 190.134L41 189.969ZM45.5579 212.34C43.8731 208.51 42.7189 204.885 41.9888 201.439L46.2842 200.57C46.9513 203.719 48.0135 207.068 49.5879 210.648L45.5579 212.34ZM57.4947 231.6C54.976 228.4 52.8024 225.324 50.9368 222.363L54.6721 220.116C56.4513 222.94 58.5372 225.893 60.9717 228.986L57.4947 231.6ZM72.5355 242.907C72.507 244.09 71.5023 245.027 70.2913 244.999L50.5575 244.546C49.3465 244.518 48.3879 243.536 48.4164 242.353C48.4448 241.17 49.4496 240.233 50.6606 240.261L65.2006 240.595C65.0802 240.464 64.9604 240.334 64.8411 240.204L68.106 237.342C68.163 237.404 68.22 237.466 68.2772 237.528L68.6141 223.522C68.6426 222.339 69.6473 221.402 70.8583 221.43C72.0692 221.457 73.0278 222.439 72.9994 223.623L72.5355 242.907Z" fill="#747373"/>
</g>
<g filter="url(#filter1_i_403_16)">
<path fill-rule="evenodd" clip-rule="evenodd" d="M264.608 149.812C265.125 148.889 266.075 148.729 266.731 149.456L277.423 161.297C278.079 162.024 278.193 163.362 277.676 164.285C277.16 165.209 276.21 165.368 275.554 164.642L267.575 155.805C267.58 155.988 267.585 156.17 267.589 156.352L264.73 156.477L258.572 167.494C258.056 168.417 257.106 168.577 256.449 167.85C255.793 167.124 255.68 165.786 256.196 164.862L264.608 149.812ZM267.171 167.284C266.82 170.887 266.268 174.447 265.539 177.951L262.637 176.755C263.327 173.44 263.847 170.087 264.176 166.707L267.171 167.284ZM262.887 188.161C261.864 191.451 260.698 194.677 259.413 197.829L256.791 195.71C258.026 192.682 259.142 189.593 260.118 186.455L262.887 188.161ZM255.284 206.929C253.817 209.862 252.257 212.716 250.624 215.479L248.3 212.758C249.884 210.077 251.395 207.314 252.812 204.48L255.284 206.929ZM245.528 223.496C243.752 226.1 241.922 228.603 240.061 230.994L238.023 227.851C239.837 225.52 241.619 223.082 243.347 220.548L245.528 223.496ZM234.265 237.981C232.235 240.276 230.193 242.434 228.164 244.44L226.426 240.958C228.402 239.004 230.392 236.901 232.372 234.663L234.265 237.981ZM221.764 250.318C220.646 251.266 219.542 252.16 218.454 253L217 249.269C218.051 248.458 219.12 247.591 220.204 246.673L221.764 250.318Z" fill="#747373"/>
</g>
<g filter="url(#filter2_i_403_16)">
<path fill-rule="evenodd" clip-rule="evenodd" d="M346.743 96.9883C346.149 96.0572 345.389 95.1409 344.416 94.2395L346.762 92.0261C347.911 93.0902 348.837 94.1985 349.573 95.3523L346.743 96.9883ZM348.29 111.383C348.605 108.604 348.864 106.096 348.741 103.747L352.014 103.49C352.152 106.112 351.861 108.85 351.548 111.602L348.29 111.383ZM348.233 127.527C347.665 124.688 347.531 121.969 347.603 119.381L350.878 119.355C350.811 121.785 350.939 124.283 351.455 126.864L348.233 127.527ZM355.315 142.187C353.443 139.837 351.993 137.536 350.882 135.282L353.866 133.92C354.881 135.979 356.218 138.106 357.968 140.302L355.315 142.187ZM367.252 153.387C364.879 151.621 362.778 149.88 360.92 148.164L363.265 145.948C365.036 147.585 367.053 149.257 369.347 150.964L367.252 153.387ZM380.114 158.54C380.293 159.363 379.718 160.189 378.831 160.384L364.373 163.568C363.486 163.763 362.622 163.254 362.444 162.431C362.266 161.608 362.841 160.782 363.728 160.587L374.38 158.241C374.271 158.172 374.161 158.103 374.053 158.035L375.951 155.477C376.003 155.51 376.055 155.542 376.107 155.575L373.998 145.832C373.819 145.009 374.394 144.183 375.281 143.988C376.169 143.792 377.032 144.301 377.21 145.125L380.114 158.54Z" fill="#747373"/>
</g>
<g filter="url(#filter3_i_403_16)">
<path fill-rule="evenodd" clip-rule="evenodd" d="M516.73 141.843C517.28 140.884 518.293 140.719 518.992 141.473L530.385 153.77C531.084 154.525 531.205 155.914 530.655 156.873C530.105 157.832 529.092 157.998 528.393 157.243L519.891 148.067C519.897 148.256 519.902 148.446 519.906 148.635L516.86 148.764L510.298 160.205C509.748 161.164 508.735 161.33 508.036 160.575C507.337 159.821 507.216 158.432 507.766 157.472L516.73 141.843ZM519.461 159.987C519.087 163.729 518.498 167.426 517.721 171.065L514.63 169.823C515.365 166.38 515.919 162.898 516.269 159.388L519.461 159.987ZM514.896 181.667C513.806 185.083 512.564 188.434 511.195 191.707L508.401 189.507C509.716 186.362 510.905 183.154 511.945 179.895L514.896 181.667ZM506.795 201.158C505.232 204.203 503.569 207.166 501.829 210.036L499.352 207.211C501.04 204.426 502.65 201.556 504.16 198.613L506.795 201.158ZM496.399 218.361C494.506 221.065 492.556 223.664 490.573 226.148L488.401 222.884C490.334 220.463 492.233 217.931 494.075 215.3L496.399 218.361ZM484.397 233.403C482.234 235.787 480.058 238.027 477.896 240.111L476.044 236.495C478.149 234.466 480.27 232.282 482.38 229.958L484.397 233.403ZM471.076 246.215C469.885 247.199 468.708 248.128 467.549 249L466 245.125C467.12 244.283 468.259 243.383 469.414 242.43L471.076 246.215Z" fill="#747373"/>
</g>
<defs>
<filter id="filter0_i_403_16" x="41" y="141" width="32" height="108" filterUnits="userSpaceOnUse" color-interpolation-filters="sRGB">
<feFlood flood-opacity="0" result="BackgroundImageFix"/>
<feBlend mode="normal" in="SourceGraphic" in2="BackgroundImageFix" result="shape"/>
<feColorMatrix in="SourceAlpha" type="matrix" values="0 0 0 0 0 0 0 0 0 0 0 0 0 0 0 0 0 0 127 0" result="hardAlpha"/>
<feOffset dy="4"/>
<feGaussianBlur stdDeviation="2"/>
<feComposite in2="hardAlpha" operator="arithmetic" k2="-1" k3="1"/>
<feColorMatrix type="matrix" values="0 0 0 0 0 0 0 0 0 0 0 0 0 0 0 0 0 0 0.25 0"/>
<feBlend mode="normal" in2="shape" result="effect1_innerShadow_403_16"/>
</filter>
<filter id="filter1_i_403_16" x="217" y="149" width="61" height="108" filterUnits="userSpaceOnUse" color-interpolation-filters="sRGB">
<feFlood flood-opacity="0" result="BackgroundImageFix"/>
<feBlend mode="normal" in="SourceGraphic" in2="BackgroundImageFix" result="shape"/>
<feColorMatrix in="SourceAlpha" type="matrix" values="0 0 0 0 0 0 0 0 0 0 0 0 0 0 0 0 0 0 127 0" result="hardAlpha"/>
<feOffset dy="4"/>
<feGaussianBlur stdDeviation="2"/>
<feComposite in2="hardAlpha" operator="arithmetic" k2="-1" k3="1"/>
<feColorMatrix type="matrix" values="0 0 0 0 0 0 0 0 0 0 0 0 0 0 0 0 0 0 0.25 0"/>
<feBlend mode="normal" in2="shape" result="effect1_innerShadow_403_16"/>
</filter>
<filter id="filter2_i_403_16" x="344.416" y="92.0259" width="35.7313" height="75.5835" filterUnits="userSpaceOnUse" color-interpolation-filters="sRGB">
<feFlood flood-opacity="0" result="BackgroundImageFix"/>
<feBlend mode="normal" in="SourceGraphic" in2="BackgroundImageFix" result="shape"/>
<feColorMatrix in="SourceAlpha" type="matrix" values="0 0 0 0 0 0 0 0 0 0 0 0 0 0 0 0 0 0 127 0" result="hardAlpha"/>
<feOffset dy="4"/>
<feGaussianBlur stdDeviation="2"/>
<feComposite in2="hardAlpha" operator="arithmetic" k2="-1" k3="1"/>
<feColorMatrix type="matrix" values="0 0 0 0 0 0 0 0 0 0 0 0 0 0 0 0 0 0 0.25 0"/>
<feBlend mode="normal" in2="shape" result="effect1_innerShadow_403_16"/>
</filter>
<filter id="filter3_i_403_16" x="466" y="141" width="65" height="112" filterUnits="userSpaceOnUse" color-interpolation-filters="sRGB">
<feFlood flood-opacity="0" result="BackgroundImageFix"/>
<feBlend mode="normal" in="SourceGraphic" in2="BackgroundImageFix" result="shape"/>
<feColorMatrix in="SourceAlpha" type="matrix" values="0 0 0 0 0 0 0 0 0 0 0 0 0 0 0 0 0 0 127 0" result="hardAlpha"/>
<feOffset dy="4"/>
<feGaussianBlur stdDeviation="2"/>
<feComposite in2="hardAlpha" operator="arithmetic" k2="-1" k3="1"/>
<feColorMatrix type="matrix" values="0 0 0 0 0 0 0 0 0 0 0 0 0 0 0 0 0 0 0.25 0"/>
<feBlend mode="normal" in2="shape" result="effect1_innerShadow_403_16"/>
</filter>
</defs>
</svg>
