<svg width="20" height="19" viewBox="0 0 20 19" fill="none" xmlns="http://www.w3.org/2000/svg">
<path d="M12.3636 6.69247H18.1818C18.664 6.69247 19.1265 6.88403 19.4675 7.22501C19.8084 7.56598 20 8.02844 20 8.51065V10.4234C20.0002 10.661 19.9539 10.8963 19.8636 11.1161L17.05 17.9479C16.9814 18.1145 16.8648 18.2569 16.7151 18.3571C16.5653 18.4573 16.3892 18.5107 16.2091 18.5107H0.909091C0.667985 18.5107 0.436754 18.4149 0.266266 18.2444C0.0957789 18.0739 0 17.8427 0 17.6016V8.51065C0 8.26955 0.0957789 8.03832 0.266266 7.86783C0.436754 7.69734 0.667985 7.60156 0.909091 7.60156H4.07454C4.22009 7.6016 4.36351 7.56669 4.49276 7.49978C4.622 7.43286 4.73329 7.33589 4.81727 7.21702L9.77454 0.192473C9.83721 0.103666 9.92963 0.0402552 10.035 0.0137367C10.1404 -0.0127817 10.2519 -0.000651675 10.3491 0.0479274L11.9982 0.872473C12.4623 1.10444 12.833 1.48821 13.0488 1.96003C13.2647 2.43185 13.3125 2.96331 13.1845 3.46611L12.3636 6.69247ZM5.45455 9.0452V16.6925H15.6L18.1818 10.4234V8.51065H12.3636C12.0867 8.51061 11.8135 8.44733 11.5648 8.32562C11.316 8.20391 11.0984 8.02699 10.9284 7.80837C10.7585 7.58975 10.6407 7.33519 10.5841 7.06413C10.5275 6.79307 10.5336 6.51266 10.6018 6.24429L11.4227 3.01884C11.4484 2.91823 11.4389 2.81185 11.3957 2.71741C11.3525 2.62297 11.2783 2.54615 11.1855 2.49975L10.5845 2.19975L6.30273 8.2652C6.07545 8.58702 5.78454 8.85065 5.45455 9.0452ZM3.63636 9.41975H1.81818V16.6925H3.63636V9.41975Z" fill="#2E95D2"/>
</svg>
