<svg width="223" height="46" viewBox="0 0 223 46" fill="none" xmlns="http://www.w3.org/2000/svg">
<path fill-rule="evenodd" clip-rule="evenodd" d="M42.1 0.0999999V7.8H49.8V15.5H42.1V23H49.8V38.3H30.6L23 46H7.7V15.4H23L30.7 7.7H42.2V15.4H26.9L19.1 23H0V7.7H19.1L26.8 0H42.1V0.0999999ZM7.7 38.3H0V30.6H23L30.7 22.9H42.2V30.6H26.8L19.1 38.3H7.7Z" fill="#2F95D2"/>
<path fill-rule="evenodd" clip-rule="evenodd" d="M166.5 10.7001V25.9001H180.1V22.8001H170.3V19.6001H179V16.4001H170.3V13.7001H180.1V10.6001H166.5V10.7001ZM182.3 10.7001V13.9001H187.5V19.7001H191.4V13.9001H196.6V10.7001H182.3ZM187.5 22.8001V26.0001H191.4V22.8001H187.5ZM148.2 10.7001V19.7001H151.9V15.1001L159.6 25.9001H164.3V10.7001H160.6V21.5001L152.9 10.7001H148.2ZM148.2 22.8001V26.0001H151.9V22.8001H148.2Z" fill="#2F95D2"/>
<path d="M67 31.7999C67 31.4999 66.9 31.2999 66.7 31.0999C66.6 30.8999 66.4 30.6999 66.1 30.4999C65.9 30.2999 65.6 30.1999 65.3 30.0999C65 29.9999 64.6 29.9999 64.2 29.9999C63.8 29.9999 63.4 30.0999 63 30.1999C62.7 30.2999 62.4 30.4999 62.1 30.6999C61.9 30.8999 61.7 31.1999 61.5 31.4999C61.4 31.7999 61.3 32.0999 61.3 32.4999C61.3 32.8999 61.4 33.1999 61.5 33.4999C61.6 33.7999 61.8 34.0999 62.1 34.2999C62.3 34.4999 62.6 34.6999 63 34.7999C63.3 34.8999 63.7 34.9999 64.2 34.9999C64.6 34.9999 64.9 34.9999 65.3 34.8999C65.6 34.7999 65.9 34.6999 66.1 34.4999C66.3 34.2999 66.5 34.0999 66.7 33.8999C66.8 33.6999 66.9 33.3999 67 33.0999H65.7C65.7 33.2999 65.6 33.4999 65.5 33.5999C65.4 33.6999 65.2 33.8999 65 33.8999C64.8 33.9999 64.6 33.9999 64.3 33.9999C64 33.9999 63.7 33.8999 63.5 33.7999C63.3 33.6999 63.1 33.4999 63 33.2999C62.9 33.0999 62.8 32.7999 62.8 32.4999C62.8 32.1999 62.9 31.8999 63 31.6999C63.1 31.4999 63.3 31.2999 63.5 31.1999C63.7 31.0999 64 30.9999 64.3 30.9999C64.7 30.9999 65 31.0999 65.2 31.1999C65.4 31.2999 65.6 31.5999 65.7 31.8999H67V31.7999ZM70.4 29.8999C70 29.8999 69.6 29.9999 69.2 30.0999C68.9 30.1999 68.6 30.3999 68.3 30.5999C68.1 30.7999 67.9 31.0999 67.7 31.3999C67.6 31.6999 67.5 31.9999 67.5 32.3999C67.5 32.7999 67.6 33.0999 67.7 33.3999C67.8 33.6999 68 33.9999 68.3 34.1999C68.5 34.3999 68.8 34.5999 69.2 34.6999C69.5 34.7999 69.9 34.8999 70.4 34.8999C70.8 34.8999 71.2 34.7999 71.6 34.6999C71.9 34.5999 72.2 34.3999 72.5 34.1999C72.7 33.9999 72.9 33.6999 73.1 33.3999C73.2 33.0999 73.3 32.7999 73.3 32.3999C73.3 31.9999 73.2 31.6999 73.1 31.3999C73 31.0999 72.8 30.7999 72.5 30.5999C72.3 30.3999 72 30.1999 71.6 30.0999C71.2 29.9999 70.8 29.8999 70.4 29.8999ZM70.4 30.8999C70.7 30.8999 71 30.9999 71.2 31.0999C71.4 31.1999 71.6 31.3999 71.7 31.5999C71.8 31.7999 71.9 32.0999 71.9 32.3999C71.9 32.6999 71.8 32.9999 71.7 33.1999C71.6 33.3999 71.4 33.5999 71.2 33.6999C71 33.7999 70.7 33.8999 70.4 33.8999C70.1 33.8999 69.8 33.7999 69.6 33.6999C69.4 33.5999 69.2 33.3999 69.1 33.1999C69 32.9999 68.9 32.6999 68.9 32.3999C68.9 32.0999 69 31.7999 69.1 31.5999C69.2 31.3999 69.4 31.1999 69.6 31.0999C69.8 30.9999 70.1 30.8999 70.4 30.8999ZM75 31.4999C75 31.3999 75.1 31.1999 75.1 31.0999C75.2 30.9999 75.3 30.8999 75.5 30.8999C75.7 30.8999 75.9 30.7999 76.2 30.7999C76.4 30.7999 76.6 30.7999 76.7 30.8999C76.8 30.8999 77 30.9999 77 31.0999C77.1 31.1999 77.1 31.2999 77.1 31.3999C77.1 31.4999 77.1 31.6999 77 31.6999C76.9 31.7999 76.8 31.7999 76.7 31.8999C76.6 31.8999 76.4 31.8999 76.2 31.8999H75.7V32.6999H76.3C76.5 32.6999 76.6 32.6999 76.7 32.6999C76.8 32.6999 76.9 32.6999 77 32.7999C77.1 32.7999 77.1 32.8999 77.2 32.9999C77.2 33.0999 77.3 33.1999 77.3 33.2999C77.3 33.3999 77.3 33.5999 77.2 33.6999C77.1 33.7999 77 33.8999 76.8 33.8999C76.6 33.8999 76.4 33.9999 76.2 33.9999C75.9 33.9999 75.7 33.9999 75.6 33.9999C75.4 33.9999 75.3 33.8999 75.2 33.8999C75.1 33.7999 75 33.7999 75 33.6999C75 33.5999 74.9 33.4999 74.9 33.3999H73.8C73.8 33.5999 73.8 33.6999 73.9 33.8999C73.9 34.0999 74 34.1999 74.1 34.2999C74.2 34.3999 74.4 34.5999 74.5 34.6999C74.7 34.7999 74.9 34.8999 75.2 34.8999C75.5 34.9999 75.8 34.9999 76.2 34.9999C76.4 34.9999 76.7 34.9999 76.9 34.9999C77.1 34.9999 77.3 34.8999 77.5 34.8999C77.7 34.7999 77.9 34.7999 78 34.5999C78.2 34.4999 78.3 34.3999 78.4 34.1999C78.5 33.9999 78.5 33.7999 78.5 33.5999C78.5 33.3999 78.5 33.0999 78.4 32.9999C78.3 32.7999 78.2 32.6999 78 32.5999C77.8 32.4999 77.7 32.3999 77.4 32.3999C77.5 32.3999 77.6 32.3999 77.7 32.2999C77.8 32.1999 77.9 32.1999 78 32.0999C78.1 31.9999 78.1 31.8999 78.2 31.7999C78.2 31.6999 78.3 31.4999 78.3 31.3999C78.3 31.1999 78.3 31.0999 78.2 30.8999C78.1 30.7999 78.1 30.6999 77.9 30.5999C77.8 30.4999 77.7 30.3999 77.5 30.3999C77.4 30.2999 77.2 30.2999 77 30.2999C76.8 30.2999 76.7 30.1999 76.5 30.1999C76.3 30.1999 76.1 30.1999 76 30.1999C75.7 30.1999 75.4 30.1999 75.2 30.2999C75 30.3999 74.8 30.3999 74.6 30.4999C74.4 30.5999 74.3 30.6999 74.1 30.7999C74 30.8999 73.9 31.0999 73.8 31.1999C73.7 31.2999 73.7 31.4999 73.7 31.6999H75V31.4999ZM80.1 29.9999V31.3999C80.1 31.6999 80.1 31.8999 80.1 32.0999C80.1 32.2999 80.1 32.5999 80 32.7999C80 32.9999 79.9 33.1999 79.8 33.3999C79.7 33.5999 79.6 33.6999 79.5 33.7999H79.1V35.7999H80.2V34.7999H83.9V35.7999H85V33.7999H84.4V29.9999H80.1ZM83.2 30.9999V33.7999H80.6C80.8 33.6999 80.9 33.3999 81 32.9999C81.1 32.5999 81.2 32.0999 81.2 31.4999V30.9999H83.2ZM85 34.7999H86.3L86.7 33.7999H88.8L89.2 34.7999H90.5L88.4 29.9999H87.3L85 34.7999ZM87.1 32.7999L87.7 31.2999L88.3 32.7999H87.1ZM90.9 29.9999V34.6999H95.1V33.6999H92.1V32.6999H94.8V31.6999H92.1V30.9999H95.1V29.9999H90.9ZM96 29.9999V34.6999H97.1V31.4999L98.5 34.6999H99.5L101 31.4999V34.6999H102.1V29.9999H100.6L99 33.3999L97.5 29.9999H96ZM105.6 29.9999V34.6999H108.5C108.8 34.6999 109.1 34.5999 109.4 34.4999C109.6 34.3999 109.8 34.1999 109.9 33.9999C110 33.7999 110.1 33.4999 110.1 33.1999C110.1 32.8999 110 32.5999 109.9 32.3999C109.8 32.1999 109.6 31.9999 109.4 31.8999C109.2 31.7999 108.9 31.6999 108.5 31.6999H106.8V30.9999H109.6V29.9999H105.6ZM106.8 32.7999H108C108.2 32.7999 108.4 32.7999 108.5 32.7999C108.6 32.7999 108.7 32.8999 108.8 32.8999C108.9 32.9999 108.9 33.0999 108.9 33.1999C108.9 33.2999 108.9 33.4999 108.8 33.4999C108.7 33.5999 108.7 33.5999 108.5 33.6999C108.4 33.6999 108.2 33.6999 108 33.6999H106.7V32.7999H106.8ZM110 29.9999L112.2 33.5999C112.2 33.6999 112.1 33.6999 112.1 33.7999L112 33.8999H111.9C111.8 33.8999 111.8 33.8999 111.7 33.8999C111.6 33.8999 111.6 33.8999 111.5 33.8999C111.4 33.8999 111.4 33.8999 111.3 33.8999C111.2 33.8999 111.2 33.8999 111.2 33.8999V34.7999H111.3C111.4 34.7999 111.4 34.7999 111.5 34.7999C111.6 34.7999 111.6 34.7999 111.7 34.7999C111.8 34.7999 111.8 34.7999 111.9 34.7999C112 34.7999 112.2 34.7999 112.3 34.7999C112.4 34.7999 112.5 34.6999 112.6 34.6999C112.7 34.5999 112.8 34.4999 112.9 34.3999C113 34.2999 113.1 34.0999 113.2 33.9999L115.2 30.0999H113.9L112.7 32.5999L111.3 29.9999H110ZM116 29.9999V31.3999C116 31.6999 116 31.8999 116 32.0999C116 32.2999 116 32.5999 115.9 32.7999C115.9 32.9999 115.8 33.1999 115.7 33.3999C115.6 33.5999 115.5 33.6999 115.4 33.7999H115V35.7999H116.1V34.7999H119.8V35.7999H120.9V33.7999H120.3V29.9999H116ZM119.1 30.9999V33.7999H116.5C116.7 33.6999 116.8 33.3999 116.9 32.9999C117 32.5999 117.1 32.0999 117.1 31.4999V30.9999H119.1ZM120.9 29.9999L123.1 33.5999C123.1 33.6999 123 33.6999 123 33.7999L122.9 33.8999H122.8C122.7 33.8999 122.7 33.8999 122.6 33.8999C122.5 33.8999 122.5 33.8999 122.4 33.8999C122.3 33.8999 122.3 33.8999 122.2 33.8999C122.1 33.8999 122.1 33.8999 122.1 33.8999V34.7999H122.2C122.3 34.7999 122.3 34.7999 122.4 34.7999C122.5 34.7999 122.5 34.7999 122.6 34.7999C122.7 34.7999 122.7 34.7999 122.8 34.7999C122.9 34.7999 123.1 34.7999 123.2 34.7999C123.3 34.7999 123.4 34.6999 123.5 34.6999C123.6 34.5999 123.7 34.4999 123.8 34.3999C123.9 34.2999 124 34.0999 124.1 33.9999L126.1 30.0999H124.8L123.6 32.5999L122.1 30.0999H120.9V29.9999ZM127.7 29.9999H126.5V34.6999H132.8V35.6999H133.9V33.6999H133.3V29.9999H132.3V33.6999H130.6V29.9999H129.4V33.6999H127.7V29.9999ZM134.7 29.9999V34.6999H138.9V33.6999H135.9V32.6999H138.6V31.6999H135.9V30.9999H138.9V29.9999H134.7ZM139.8 29.9999V34.6999H144V33.6999H141V32.6999H143.7V31.6999H141V30.9999H144V29.9999H139.8ZM148 29.9999V31.3999C148 31.6999 148 31.8999 148 32.0999C148 32.2999 148 32.5999 147.9 32.7999C147.9 32.9999 147.8 33.1999 147.7 33.3999C147.6 33.5999 147.5 33.6999 147.4 33.7999H147V35.7999H148.1V34.7999H151.8V35.7999H152.9V33.7999H152.3V29.9999H148ZM151.1 30.9999V33.7999H148.5C148.7 33.6999 148.8 33.3999 148.9 32.9999C149 32.5999 149.1 32.0999 149.1 31.4999V30.9999H151.1ZM154.1 29.9999V32.4999C154.1 32.7999 154.1 32.9999 154.1 33.1999C154.1 33.3999 154 33.4999 154 33.5999C154 33.6999 153.9 33.7999 153.8 33.7999C153.7 33.7999 153.6 33.8999 153.5 33.8999C153.4 33.8999 153.4 33.8999 153.3 33.8999C153.2 33.8999 153.2 33.8999 153.2 33.8999V34.8999C153.3 34.8999 153.4 34.8999 153.5 34.9999C153.6 34.9999 153.7 34.9999 153.9 34.9999C154.2 34.9999 154.4 34.9999 154.6 34.8999C154.8 34.7999 154.9 34.6999 155.1 34.4999C155.2 34.2999 155.3 34.0999 155.3 33.8999C155.4 33.6999 155.4 33.3999 155.4 33.0999V30.9999H157.5V34.6999H158.7V29.9999H154.1ZM163.8 29.9999H160.9C160.6 29.9999 160.3 30.0999 160 30.1999C159.8 30.2999 159.6 30.4999 159.5 30.6999C159.4 30.8999 159.3 31.1999 159.3 31.4999C159.3 31.7999 159.4 31.9999 159.4 32.1999C159.5 32.3999 159.6 32.5999 159.8 32.6999C160 32.7999 160.2 32.8999 160.4 32.8999L159.2 34.7999H160.5L161.6 33.0999H162.5V34.7999H163.7V29.9999H163.8ZM162.6 32.0999H161.4C161.2 32.0999 161 32.0999 160.9 32.0999C160.8 32.0999 160.7 31.9999 160.6 31.9999C160.5 31.8999 160.5 31.7999 160.5 31.6999C160.5 31.5999 160.5 31.3999 160.6 31.3999C160.7 31.2999 160.7 31.2999 160.9 31.1999C161 31.1999 161.2 31.1999 161.4 31.1999H162.7V32.0999H162.6ZM168.4 29.9999H167.2V34.6999H168.4V32.6999H170.7V34.6999H171.9V29.9999H170.7V31.7999H168.4V29.9999ZM172.3 34.7999H173.6L174 33.7999H176.1L176.5 34.7999H177.8L175.6 30.0999H174.5L172.3 34.7999ZM174.4 32.7999L175 31.2999L175.6 32.7999H174.4ZM183.4 31.7999C183.4 31.4999 183.3 31.2999 183.1 31.0999C183 30.8999 182.8 30.6999 182.5 30.4999C182.3 30.2999 182 30.1999 181.7 30.0999C181.4 29.9999 181 29.9999 180.6 29.9999C180.2 29.9999 179.8 30.0999 179.4 30.1999C179.1 30.2999 178.8 30.4999 178.5 30.6999C178.3 30.8999 178.1 31.1999 177.9 31.4999C177.8 31.7999 177.7 32.0999 177.7 32.4999C177.7 32.8999 177.8 33.1999 177.9 33.4999C178 33.7999 178.2 34.0999 178.5 34.2999C178.7 34.4999 179 34.6999 179.4 34.7999C179.7 34.8999 180.1 34.9999 180.6 34.9999C181 34.9999 181.3 34.9999 181.7 34.8999C182 34.7999 182.3 34.6999 182.5 34.4999C182.7 34.2999 182.9 34.0999 183.1 33.8999C183.2 33.6999 183.3 33.3999 183.4 33.0999H182.1C182.1 33.2999 182 33.4999 181.9 33.5999C181.8 33.6999 181.6 33.8999 181.4 33.8999C181.2 33.9999 181 33.9999 180.7 33.9999C180.4 33.9999 180.1 33.8999 179.9 33.7999C179.7 33.6999 179.5 33.4999 179.4 33.2999C179.3 33.0999 179.2 32.7999 179.2 32.4999C179.2 32.1999 179.3 31.8999 179.4 31.6999C179.5 31.4999 179.7 31.2999 179.9 31.1999C180.1 31.0999 180.4 30.9999 180.7 30.9999C181.1 30.9999 181.4 31.0999 181.6 31.1999C181.8 31.2999 182 31.5999 182.1 31.8999H183.4V31.7999ZM183.6 29.9999V30.9999H185.2V34.6999H186.4V30.9999H188V29.9999H183.6ZM191.1 29.8999C190.7 29.8999 190.3 29.9999 189.9 30.0999C189.6 30.1999 189.3 30.3999 189 30.5999C188.8 30.7999 188.6 31.0999 188.4 31.3999C188.3 31.6999 188.2 31.9999 188.2 32.3999C188.2 32.7999 188.3 33.0999 188.4 33.3999C188.5 33.6999 188.7 33.9999 189 34.1999C189.2 34.3999 189.5 34.5999 189.9 34.6999C190.2 34.7999 190.6 34.8999 191.1 34.8999C191.5 34.8999 191.9 34.7999 192.3 34.6999C192.6 34.5999 192.9 34.3999 193.2 34.1999C193.4 33.9999 193.6 33.6999 193.8 33.3999C193.9 33.0999 194 32.7999 194 32.3999C194 31.9999 193.9 31.6999 193.8 31.3999C193.7 31.0999 193.5 30.7999 193.2 30.5999C193 30.3999 192.7 30.1999 192.3 30.0999C191.9 29.9999 191.5 29.8999 191.1 29.8999ZM191.1 30.8999C191.4 30.8999 191.7 30.9999 191.9 31.0999C192.1 31.1999 192.3 31.3999 192.4 31.5999C192.5 31.7999 192.6 32.0999 192.6 32.3999C192.6 32.6999 192.5 32.9999 192.4 33.1999C192.3 33.3999 192.1 33.5999 191.9 33.6999C191.7 33.7999 191.4 33.8999 191.1 33.8999C190.8 33.8999 190.5 33.7999 190.3 33.6999C190.1 33.5999 189.9 33.3999 189.8 33.1999C189.7 32.9999 189.6 32.6999 189.6 32.3999C189.6 32.0999 189.7 31.7999 189.8 31.5999C189.9 31.3999 190.1 31.1999 190.3 31.0999C190.5 30.9999 190.8 30.8999 191.1 30.8999ZM199 29.9999H196.1C195.8 29.9999 195.5 30.0999 195.2 30.1999C195 30.2999 194.8 30.4999 194.7 30.6999C194.6 30.8999 194.5 31.1999 194.5 31.4999C194.5 31.7999 194.6 31.9999 194.6 32.1999C194.7 32.3999 194.8 32.5999 195 32.6999C195.2 32.7999 195.4 32.8999 195.6 32.8999L194.4 34.7999H195.7L196.8 33.0999H197.7V34.7999H198.9V29.9999H199ZM197.8 32.0999H196.6C196.4 32.0999 196.2 32.0999 196.1 32.0999C196 32.0999 195.9 31.9999 195.8 31.9999C195.7 31.8999 195.7 31.7999 195.7 31.6999C195.7 31.5999 195.7 31.3999 195.8 31.3999C195.9 31.2999 195.9 31.2999 196.1 31.1999C196.2 31.1999 196.4 31.1999 196.6 31.1999H197.9V32.0999H197.8ZM201.2 29.9999H200V34.6999H206.3V35.6999H207.4V33.6999H206.8V29.9999H205.6V33.6999H203.9V29.9999H202.7V33.6999H201V29.9999H201.2ZM208.2 29.9999V34.6999H212.4V33.6999H209.4V32.6999H212.1V31.6999H209.4V30.9999H212.4V29.9999H208.2ZM213.3 29.9999V34.6999H214.5V30.9999H216.9V29.9999H213.3ZM220.1 29.8999C219.7 29.8999 219.3 29.9999 218.9 30.0999C218.6 30.1999 218.3 30.3999 218 30.5999C217.8 30.7999 217.6 31.0999 217.4 31.3999C217.3 31.6999 217.2 31.9999 217.2 32.3999C217.2 32.7999 217.3 33.0999 217.4 33.3999C217.5 33.6999 217.7 33.9999 218 34.1999C218.2 34.3999 218.5 34.5999 218.9 34.6999C219.2 34.7999 219.6 34.8999 220.1 34.8999C220.5 34.8999 220.9 34.7999 221.3 34.6999C221.6 34.5999 221.9 34.3999 222.2 34.1999C222.4 33.9999 222.6 33.6999 222.8 33.3999C222.9 33.0999 223 32.7999 223 32.3999C223 31.9999 222.9 31.6999 222.8 31.3999C222.7 31.0999 222.5 30.7999 222.2 30.5999C222 30.3999 221.7 30.1999 221.3 30.0999C220.9 29.9999 220.5 29.8999 220.1 29.8999ZM220.1 30.8999C220.4 30.8999 220.7 30.9999 220.9 31.0999C221.1 31.1999 221.3 31.3999 221.4 31.5999C221.5 31.7999 221.6 32.0999 221.6 32.3999C221.6 32.6999 221.5 32.9999 221.4 33.1999C221.3 33.3999 221.1 33.5999 220.9 33.6999C220.7 33.7999 220.4 33.8999 220.1 33.8999C219.8 33.8999 219.5 33.7999 219.3 33.6999C219.1 33.5999 218.9 33.3999 218.8 33.1999C218.7 32.9999 218.6 32.6999 218.6 32.3999C218.6 32.0999 218.7 31.7999 218.8 31.5999C218.9 31.3999 219.1 31.1999 219.3 31.0999C219.5 30.9999 219.7 30.8999 220.1 30.8999Z" fill="#003E6D"/>
<path fill-rule="evenodd" clip-rule="evenodd" d="M145.9 15.3999C145.9 14.2999 145.6 13.3999 145 12.6999C144.4 11.8999 143.5 11.2999 142.4 10.9999C141.3 10.5999 140 10.3999 138.3 10.3999C137.2 10.3999 136.1 10.4999 135.2 10.7999C134.3 11.0999 133.5 11.3999 132.9 11.8999C132.2 12.3999 131.8 12.8999 131.4 13.4999C131.1 14.0999 130.9 14.7999 130.9 15.4999C130.9 16.3999 131.1 17.0999 131.5 17.6999C131.9 18.2999 132.6 18.6999 133.4 19.0999C134.3 19.3999 135.4 19.6999 136.6 19.7999L139.3 20.0999C140 20.0999 140.5 20.1999 141 20.2999C141.5 20.3999 141.8 20.5999 142 20.7999C142.2 20.9999 142.3 21.2999 142.3 21.6999C142.3 22.2999 142.1 22.6999 141.4 23.0999C140.8 23.3999 139.9 23.5999 138.8 23.5999C137.3 23.5999 136.2 23.3999 135.4 22.8999C134.7 22.3999 134.3 21.6999 134.3 20.7999H130.4C130.4 22.0999 130.7 23.0999 131.3 23.8999C131.9 24.7999 132.8 25.3999 134 25.7999C135.2 26.1999 136.6 26.3999 138.3 26.3999C140.1 26.3999 141.6 26.1999 142.8 25.7999C144 25.3999 144.9 24.7999 145.5 24.0999C146.1 23.3999 146.4 22.3999 146.4 21.2999C146.4 20.3999 146.2 19.5999 145.8 18.9999C145.4 18.3999 144.8 17.8999 143.9 17.4999C143.1 17.0999 142 16.8999 140.7 16.6999L137.9 16.3999C137.4 16.3999 136.9 16.2999 136.5 16.1999C136.1 16.0999 135.8 15.9999 135.5 15.9999C135.3 15.8999 135 15.7999 134.9 15.5999C134.8 15.3999 134.7 15.1999 134.7 14.8999C134.7 14.3999 135 13.8999 135.6 13.5999C136.2 13.2999 137 13.0999 138.1 13.0999C139.3 13.0999 140.2 13.2999 140.8 13.6999C141.4 14.0999 141.8 14.6999 141.8 15.3999H145.9ZM61.2 10.6999V13.8999H66.5V19.6999H70.3V13.8999H75.5V10.6999H61.2ZM66.5 22.7999V25.9999H70.3V22.7999H66.5ZM81.5 13.7999H85.7C86.2 13.7999 86.7 13.7999 87.2 13.7999C87.6 13.7999 87.9 13.8999 88.2 13.9999C88.5 14.0999 88.7 14.2999 88.8 14.4999C88.9 14.6999 89 14.9999 89 15.2999C89 15.7999 88.9 16.1999 88.7 16.3999C88.5 16.5999 88.1 16.8999 87.7 16.8999C87.2 16.9999 86.6 17.0999 86 17.0999H81.6V13.7999H81.5ZM77.7 25.8999H81.5V20.2999H85.9C86.5 20.2999 86.9 20.2999 87.3 20.4999C87.7 20.5999 87.9 20.7999 88.1 20.9999C88.3 21.1999 88.4 21.5999 88.5 21.9999C88.6 22.4999 88.6 22.9999 88.6 23.5999V24.5999C88.6 24.7999 88.6 24.9999 88.7 25.1999C88.8 25.3999 88.8 25.5999 88.9 25.6999H93.2C93 25.4999 92.8 25.0999 92.7 24.6999C92.6 24.2999 92.5 23.7999 92.5 23.2999C92.5 22.7999 92.4 22.2999 92.4 21.6999C92.4 21.1999 92.4 20.8999 92.3 20.4999C92.3 20.1999 92.2 19.8999 92.1 19.5999C92 19.3999 91.8 19.0999 91.5 18.8999C91.3 18.6999 90.9 18.4999 90.5 18.3999C91 18.1999 91.5 17.8999 91.8 17.4999C92.2 17.0999 92.5 16.6999 92.7 16.1999C92.9 15.6999 93 15.0999 93 14.4999C93 13.4999 92.8 12.7999 92.3 12.0999C91.8 11.4999 91.2 11.0999 90.3 10.7999C89.4 10.4999 88.3 10.3999 87 10.3999H77.6V25.8999H77.7ZM100.5 19.6999L102.5 14.9999L104.5 19.6999H100.5ZM93.7 25.8999H97.8L99.2 22.6999H106L107.4 25.8999H111.7L104.7 10.6999H101L93.7 25.8999ZM112.9 10.6999V19.6999H116.6V15.0999L124.3 25.8999H128.9V10.6999H125.3V21.4999L117.7 10.6999H112.9ZM112.9 22.7999V25.9999H116.6V22.7999H112.9Z" fill="#003E6D"/>
<path fill-rule="evenodd" clip-rule="evenodd" d="M198.9 14V10.8H202.7V14H198.9ZM202.7 25.9H198.9V17H202.7V25.9Z" fill="#003E6D"/>
<path fill-rule="evenodd" clip-rule="evenodd" d="M214.8 21.5L216 22.9C215.8 23 215.4 23.1 215.1 23.2C214.8 23.3 214.4 23.3 214.1 23.3C213 23.3 212.1 23.1 211.4 22.7C210.6 22.3 210 21.7 209.6 21C209.2 20.3 209 19.4 209 18.3C209 17.3 209.2 16.4 209.6 15.7C210 15 210.6 14.4 211.3 14C212 13.6 212.9 13.4 214 13.4C215 13.4 215.9 13.6 216.7 14C217.4 14.4 218 15 218.4 15.7C218.8 16.4 219 17.3 219 18.3C219 18.8 219 19.2 218.9 19.6C218.8 20 218.7 20.3 218.5 20.7L217.2 19.2L214.8 21.5ZM222.4 25.2L221 23.7C221.7 23.1 222.2 22.3 222.5 21.4C222.9 20.5 223 19.4 223 18.3C223 17.1 222.8 16 222.3 15C221.9 14 221.3 13.2 220.5 12.5C219.7 11.8 218.8 11.3 217.6 10.9C216.5 10.5 215.2 10.3 213.8 10.3C212.4 10.3 211.1 10.5 210 10.9C208.9 11.3 207.9 11.8 207.1 12.5C206.3 13.2 205.7 14.1 205.3 15C204.8 16 204.6 17.1 204.6 18.3C204.6 19.5 204.8 20.6 205.3 21.6C205.7 22.6 206.3 23.4 207.1 24.1C207.9 24.8 208.8 25.3 210 25.7C211.1 26.1 212.4 26.3 213.8 26.3C214.6 26.3 215.4 26.2 216.2 26.1C216.9 26 217.7 25.7 218.3 25.4L220 27.3L222.4 25.2Z" fill="#003E6D"/>
</svg>
