<svg width="19" height="30" viewBox="0 0 19 30" fill="none" xmlns="http://www.w3.org/2000/svg">
<path d="M18.3695 29.8283C18.5582 29.7303 18.7469 29.5422 18.8454 29.3461C19.0095 29.0273 19.0095 28.9128 18.9931 20.812C18.9684 12.6621 18.9684 12.5967 18.7961 12.376C18.7059 12.2534 18.5254 12.0736 18.4023 11.9837C18.1808 11.8202 18.0659 11.812 14.6608 11.7875L11.1409 11.7629L11.1163 6.31063C11.0917 0.866486 11.0917 0.858312 10.9112 0.572208C10.5583 0.00817513 10.5255 7.40862e-07 7.85891 9.73985e-07L5.47126 1.18272e-06L5.15127 0.294279C4.83128 0.580383 4.79846 0.662127 2.76362 6.7357L0.712382 12.891L0.728792 21.0327C0.753407 29.109 0.753407 29.1744 0.925713 29.3951C1.01597 29.5177 1.19648 29.6976 1.31955 29.7875C1.54109 29.9591 1.60672 29.9591 9.80349 29.9755C17.9018 29.9918 18.0741 29.9918 18.3695 29.8283Z" fill="#2E95D2"/>
</svg>
