<svg width="586" height="79" viewBox="0 0 586 79" fill="none" xmlns="http://www.w3.org/2000/svg">
<path d="M25.9523 10.75L27.0976 13.5228L27.1232 13.5122L27.1485 13.5012L25.9523 10.75ZM17.6843 16.792L19.9534 18.7545L19.9664 18.7395L19.9791 18.7244L17.6843 16.792ZM12.4903 26.438L15.347 27.3543L15.3495 27.3466L15.3519 27.3389L12.4903 26.438ZM13.5503 55.376L10.7799 56.5268L10.7874 56.5449L10.7951 56.5629L13.5503 55.376ZM22.2423 65.976L20.6107 68.4935L20.6212 68.5003L20.6317 68.507L22.2423 65.976ZM46.1983 68.838L45.637 65.891H45.637L46.1983 68.838ZM54.8903 66.718H57.8903V62.6859L54.0283 63.8445L54.8903 66.718ZM54.8903 74.986L55.9437 77.795L57.8903 77.065V74.986H54.8903ZM46.0923 77.318L45.6103 74.357L45.5991 74.3588L46.0923 77.318ZM16.0943 73.29L17.6686 70.7362L16.0943 73.29ZM4.43434 59.722L1.68208 60.9158L1.68811 60.9296L1.69427 60.9435L4.43434 59.722ZM2.95034 23.364L0.112878 22.3899L0.106345 22.409L0.100069 22.4281L2.95034 23.364ZM9.94634 11.068L7.7142 9.06362L7.70276 9.07636L7.69147 9.08923L9.94634 11.068ZM21.3943 3.118L22.5235 5.8974L22.542 5.88987L22.5604 5.88209L21.3943 3.118ZM48.2123 1.42199L48.8449 -1.51057H48.8449L48.2123 1.42199ZM57.8583 4.708L60.5696 5.99226L61.8268 3.33811L59.2 2.02472L57.8583 4.708ZM54.0423 12.764L52.8009 15.4951L55.4894 16.7171L56.7536 14.0483L54.0423 12.764ZM46.1983 9.902L45.3363 12.7755L45.346 12.7784L45.3557 12.7812L46.1983 9.902ZM36.8703 5.63C32.4867 5.63 28.4324 6.40041 24.7562 7.99879L27.1485 13.5012C29.9736 12.2729 33.1979 11.63 36.8703 11.63V5.63ZM24.8071 7.97721C21.1122 9.50335 17.9617 11.8052 15.3896 14.8596L19.9791 18.7244C21.9297 16.4081 24.2912 14.682 27.0976 13.5228L24.8071 7.97721ZM15.4153 14.8295C12.8472 17.7988 10.9339 21.3915 9.6288 25.5371L15.3519 27.3389C16.4494 23.8525 17.9988 21.0145 19.9534 18.7545L15.4153 14.8295ZM9.6337 25.5217C8.32032 29.6164 7.68834 34.1736 7.68834 39.158H13.6883C13.6883 34.6731 14.2577 30.7503 15.347 27.3543L9.6337 25.5217ZM7.68834 39.158C7.68834 45.6762 8.68757 51.4898 10.7799 56.5268L16.3208 54.2252C14.5971 50.0755 13.6883 45.0772 13.6883 39.158H7.68834ZM10.7951 56.5629C12.9841 61.6444 16.2474 65.6655 20.6107 68.4935L23.874 63.4585C20.6052 61.3399 18.0739 58.2943 16.3056 54.1891L10.7951 56.5629ZM20.6317 68.507C25.1099 71.3567 30.5455 72.686 36.7643 72.686V66.686C31.3939 66.686 27.1481 65.5419 23.853 63.445L20.6317 68.507ZM36.7643 72.686C40.2557 72.686 43.5894 72.3889 46.7597 71.785L45.637 65.891C42.8712 66.4178 39.9157 66.686 36.7643 66.686V72.686ZM46.7597 71.785C49.8267 71.2008 52.8245 70.4698 55.7524 69.5915L54.0283 63.8445C51.3029 64.6622 48.506 65.3445 45.637 65.891L46.7597 71.785ZM51.8903 66.718V74.986H57.8903V66.718H51.8903ZM53.837 72.177C51.1989 73.1663 48.4579 73.8934 45.6103 74.357L46.5744 80.279C49.8042 79.7532 52.9284 78.9257 55.9437 77.795L53.837 72.177ZM45.5991 74.3588C42.8428 74.8182 39.4485 75.06 35.3863 75.06V81.06C39.6629 81.06 43.4059 80.8071 46.5855 80.2772L45.5991 74.3588ZM35.3863 75.06C28.0907 75.06 22.2415 73.5551 17.6686 70.7362L14.5201 75.8438C20.2646 79.3849 27.2767 81.06 35.3863 81.06V75.06ZM17.6686 70.7362C13.0551 67.8923 9.55881 63.8493 7.17442 58.5005L1.69427 60.9435C4.53921 67.3254 8.81623 72.3277 14.5201 75.8438L17.6686 70.7362ZM7.18661 58.5282C4.83998 53.118 3.61834 46.6509 3.61834 39.052H-2.38166C-2.38166 47.2824 -1.05929 54.5954 1.68208 60.9158L7.18661 58.5282ZM3.61834 39.052C3.61834 33.5996 4.35864 28.6914 5.80062 24.2999L0.100069 22.4281C-1.56728 27.5059 -2.38166 33.0564 -2.38166 39.052H3.61834ZM5.78781 24.3381C7.29731 19.9408 9.44191 16.1911 12.2012 13.0468L7.69147 9.08923C4.37345 12.8702 1.85404 17.3179 0.112878 22.3899L5.78781 24.3381ZM12.1785 13.0724C14.9688 9.965 18.4013 7.57203 22.5235 5.8974L20.2652 0.338596C15.342 2.33864 11.1426 5.24566 7.7142 9.06362L12.1785 13.0724ZM22.5604 5.88209C26.6495 4.15701 31.435 3.256 36.9763 3.256V-2.744C30.787 -2.744 25.1845 -1.73701 20.2282 0.353905L22.5604 5.88209ZM36.9763 3.256C40.6618 3.256 44.1946 3.62441 47.5798 4.35456L48.8449 -1.51057C45.0221 -2.33509 41.0642 -2.744 36.9763 -2.744V3.256ZM47.5798 4.35456C50.9777 5.08743 53.9487 6.10727 56.5167 7.39128L59.2 2.02472C56.1147 0.482052 52.655 -0.68877 48.8449 -1.51057L47.5798 4.35456ZM55.1471 3.42374L51.3311 11.4797L56.7536 14.0483L60.5696 5.99226L55.1471 3.42374ZM55.2838 10.0329C52.8021 8.90489 50.0513 7.90383 47.041 7.02279L45.3557 12.7812C48.1401 13.5962 50.6186 14.5031 52.8009 15.4951L55.2838 10.0329ZM47.0604 7.02852C43.9159 6.08518 40.5117 5.63 36.8703 5.63V11.63C40.013 11.63 42.8274 12.0228 45.3363 12.7755L47.0604 7.02852ZM95.365 77V80H98.365V77H95.365ZM85.825 77H82.825V80H85.825V77ZM85.825 9.68999H88.825V6.68999H85.825V9.68999ZM62.187 9.68999H59.187V12.69H62.187V9.68999ZM62.187 1.31599V-1.68401H59.187V1.31599H62.187ZM118.897 1.31599H121.897V-1.68401H118.897V1.31599ZM118.897 9.68999V12.69H121.897V9.68999H118.897ZM95.365 9.68999V6.68999H92.365V9.68999H95.365ZM95.365 74H85.825V80H95.365V74ZM88.825 77V9.68999H82.825V77H88.825ZM85.825 6.68999H62.187V12.69H85.825V6.68999ZM65.187 9.68999V1.31599H59.187V9.68999H65.187ZM62.187 4.31599H118.897V-1.68401H62.187V4.31599ZM115.897 1.31599V9.68999H121.897V1.31599H115.897ZM118.897 6.68999H95.365V12.69H118.897V6.68999ZM92.365 9.68999V77H98.365V9.68999H92.365ZM170.344 77L167.548 78.088L168.292 80H170.344V77ZM161.228 53.574L164.024 52.486L163.28 50.574H161.228V53.574ZM131.23 53.574V50.574H129.17L128.43 52.4971L131.23 53.574ZM122.22 77V80H124.281L125.02 78.0769L122.22 77ZM112.574 77L109.778 75.9121L108.188 80H112.574V77ZM142.148 0.998001V-2.002H140.096L139.352 -0.0899048L142.148 0.998001ZM150.734 0.998001L153.531 -0.0865135L152.789 -2.002H150.734V0.998001ZM180.202 77V80H184.583L182.999 75.9155L180.202 77ZM149.886 22.198L152.699 21.156L152.695 21.1446L149.886 22.198ZM148.826 19.124L145.98 20.0727V20.0727L148.826 19.124ZM147.342 14.566L144.439 15.3233L144.459 15.4L144.483 15.4756L147.342 14.566ZM146.282 10.856L149.128 9.90731L145.87 0.133842L143.372 10.1284L146.282 10.856ZM145.116 15.202L142.232 14.3778L142.218 14.4259L142.206 14.4744L145.116 15.202ZM143.95 19.124L141.121 18.1255L141.095 18.2009L141.072 18.2775L143.95 19.124ZM142.996 22.198L145.805 23.2514L145.825 23.1994L145.842 23.1467L142.996 22.198ZM134.41 45.094L131.601 44.0406L130.081 48.094H134.41V45.094ZM158.366 45.094V48.094H162.676L161.179 44.0521L158.366 45.094ZM173.14 75.912L164.024 52.486L158.432 54.6619L167.548 78.088L173.14 75.912ZM161.228 50.574H131.23V56.574H161.228V50.574ZM128.43 52.4971L119.42 75.9231L125.02 78.0769L134.03 54.6509L128.43 52.4971ZM122.22 74H112.574V80H122.22V74ZM115.37 78.0879L144.944 2.0859L139.352 -0.0899048L109.778 75.9121L115.37 78.0879ZM142.148 3.998H150.734V-2.002H142.148V3.998ZM147.937 2.08251L177.405 78.0845L182.999 75.9155L153.531 -0.0865135L147.937 2.08251ZM180.202 74H170.344V80H180.202V74ZM152.695 21.1446C152.505 20.6379 152.168 19.6622 151.672 18.1753L145.98 20.0727C146.474 21.5538 146.843 22.6275 147.077 23.2514L152.695 21.1446ZM151.672 18.1753C151.182 16.7048 150.692 15.1986 150.201 13.6564L144.483 15.4756C144.982 17.0428 145.481 18.5751 145.98 20.0727L151.672 18.1753ZM150.245 13.8087C149.816 12.1644 149.443 10.8512 149.128 9.90731L143.436 11.8047C143.687 12.5568 144.02 13.717 144.439 15.3233L150.245 13.8087ZM143.372 10.1284C143.027 11.5076 142.647 12.924 142.232 14.3778L148.001 16.0262C148.433 14.512 148.831 13.0311 149.193 11.5836L143.372 10.1284ZM142.206 14.4744C141.872 15.8089 141.51 17.0247 141.121 18.1255L146.779 20.1225C147.239 18.8206 147.654 17.4218 148.027 15.9296L142.206 14.4744ZM141.072 18.2775C140.725 19.457 140.418 20.4455 140.15 21.2493L145.842 23.1467C146.14 22.2544 146.469 21.1937 146.828 19.9705L141.072 18.2775ZM140.187 21.1446L131.601 44.0406L137.219 46.1474L145.805 23.2514L140.187 21.1446ZM134.41 48.094H158.366V42.094H134.41V48.094ZM161.179 44.0521L152.699 21.1561L147.073 23.2399L155.553 46.1359L161.179 44.0521ZM207.058 77V80H210.058V77H207.058ZM197.518 77H194.518V80H197.518V77ZM197.518 9.68999H200.518V6.68999H197.518V9.68999ZM173.88 9.68999H170.88V12.69H173.88V9.68999ZM173.88 1.31599V-1.68401H170.88V1.31599H173.88ZM230.59 1.31599H233.59V-1.68401H230.59V1.31599ZM230.59 9.68999V12.69H233.59V9.68999H230.59ZM207.058 9.68999V6.68999H204.058V9.68999H207.058ZM207.058 74H197.518V80H207.058V74ZM200.518 77V9.68999H194.518V77H200.518ZM197.518 6.68999H173.88V12.69H197.518V6.68999ZM176.88 9.68999V1.31599H170.88V9.68999H176.88ZM173.88 4.31599H230.59V-1.68401H173.88V4.31599ZM227.59 1.31599V9.68999H233.59V1.31599H227.59ZM230.59 6.68999H207.058V12.69H230.59V6.68999ZM204.058 9.68999V77H210.058V9.68999H204.058ZM242.109 1.31599V-1.68401H239.109V1.31599H242.109ZM251.013 1.31599H254.013V-1.68401H251.013V1.31599ZM250.907 48.698L247.908 48.5981L247.907 48.648V48.698H250.907ZM250.483 60.358L247.494 60.0981L247.489 60.1599L247.486 60.2218L250.483 60.358ZM250.271 63.962L247.281 63.7129L247.01 66.962H250.271V63.962ZM250.695 63.962V66.962H252.303L253.193 65.6232L250.695 63.962ZM292.353 1.31599V-1.68401H290.745L289.855 -0.345177L292.353 1.31599ZM302.953 1.31599H305.953V-1.68401H302.953V1.31599ZM302.953 77V80H305.953V77H302.953ZM294.049 77H291.049V80H294.049V77ZM294.155 29.724L297.153 29.8207L297.153 29.8177L294.155 29.724ZM294.367 23.258L291.373 23.0584L291.37 23.1065L291.368 23.1546L294.367 23.258ZM294.897 14.036L297.884 14.3076L298.182 11.036H294.897V14.036ZM294.473 14.036V11.036H292.863L291.973 12.3777L294.473 14.036ZM252.709 77V80H254.319L255.209 78.6583L252.709 77ZM242.109 77H239.109V80H242.109V77ZM242.109 4.31599H251.013V-1.68401H242.109V4.31599ZM248.013 1.31599V42.868H254.013V1.31599H248.013ZM248.013 42.868C248.013 44.5955 247.978 46.505 247.908 48.5981L253.905 48.7979C253.977 46.651 254.013 44.6738 254.013 42.868H248.013ZM247.907 48.698C247.907 50.7128 247.872 52.7277 247.802 54.7426L253.799 54.9494C253.871 52.8656 253.907 50.7818 253.907 48.698H247.907ZM247.802 54.7426C247.733 56.7523 247.63 58.536 247.494 60.0981L253.471 60.6179C253.618 58.9293 253.727 57.0384 253.799 54.9494L247.802 54.7426ZM247.486 60.2218C247.416 61.7641 247.347 62.9213 247.281 63.7129L253.26 64.2111C253.336 63.3067 253.408 62.0612 253.48 60.4942L247.486 60.2218ZM250.271 66.962H250.695V60.962H250.271V66.962ZM253.193 65.6232L294.851 2.97717L289.855 -0.345177L248.197 62.3008L253.193 65.6232ZM292.353 4.31599H302.953V-1.68401H292.353V4.31599ZM299.953 1.31599V77H305.953V1.31599H299.953ZM302.953 74H294.049V80H302.953V74ZM297.049 77V35.872H291.049V77H297.049ZM297.049 35.872C297.049 34.0006 297.083 31.9838 297.153 29.8207L291.156 29.6273C291.085 31.8456 291.049 33.9274 291.049 35.872H297.049ZM297.153 29.8177C297.224 27.5593 297.294 25.4072 297.365 23.3614L291.368 23.1546C291.298 25.2075 291.227 27.3661 291.156 29.6303L297.153 29.8177ZM297.36 23.4576C297.503 21.321 297.61 19.4245 297.682 17.7703L291.688 17.5097C291.618 19.1062 291.514 20.955 291.373 23.0584L297.36 23.4576ZM297.682 17.7703C297.752 16.1531 297.82 15.0107 297.884 14.3076L291.909 13.7644C291.832 14.616 291.759 15.8762 291.688 17.5097L297.682 17.7703ZM294.897 11.036H294.473V17.036H294.897V11.036ZM291.973 12.3777L250.209 75.3417L255.209 78.6583L296.973 15.6943L291.973 12.3777ZM252.709 74H242.109V80H252.709V74ZM245.109 77V1.31599H239.109V77H245.109ZM344.884 10.75L346.029 13.5228L346.055 13.5122L346.08 13.5012L344.884 10.75ZM336.616 16.792L338.885 18.7545L338.898 18.7395L338.911 18.7244L336.616 16.792ZM331.422 26.438L334.279 27.3543L334.281 27.3466L334.284 27.3389L331.422 26.438ZM332.482 55.376L329.711 56.5268L329.719 56.5449L329.727 56.5629L332.482 55.376ZM341.174 65.976L339.542 68.4935L339.553 68.5003L339.563 68.507L341.174 65.976ZM365.13 68.838L364.569 65.891L365.13 68.838ZM373.822 66.718H376.822V62.6859L372.96 63.8445L373.822 66.718ZM373.822 74.986L374.875 77.795L376.822 77.065V74.986H373.822ZM365.024 77.318L364.542 74.357L364.531 74.3588L365.024 77.318ZM335.026 73.29L336.6 70.7362L335.026 73.29ZM323.366 59.722L320.614 60.9158L320.62 60.9296L320.626 60.9435L323.366 59.722ZM321.882 23.364L319.045 22.3899L319.038 22.409L319.032 22.4281L321.882 23.364ZM328.878 11.068L326.646 9.06362L326.634 9.07636L326.623 9.08923L328.878 11.068ZM340.326 3.118L341.455 5.8974L341.474 5.88987L341.492 5.88209L340.326 3.118ZM367.144 1.42199L367.777 -1.51057H367.776L367.144 1.42199ZM376.79 4.708L379.501 5.99226L380.758 3.33811L378.132 2.02472L376.79 4.708ZM372.974 12.764L371.733 15.4951L374.421 16.7171L375.685 14.0483L372.974 12.764ZM365.13 9.902L364.268 12.7755L364.278 12.7784L364.287 12.7812L365.13 9.902ZM355.802 5.63C351.418 5.63 347.364 6.40041 343.688 7.99879L346.08 13.5012C348.905 12.2729 352.13 11.63 355.802 11.63V5.63ZM343.739 7.97721C340.044 9.50335 336.893 11.8052 334.321 14.8596L338.911 18.7244C340.861 16.4081 343.223 14.682 346.029 13.5228L343.739 7.97721ZM334.347 14.8295C331.779 17.7988 329.866 21.3915 328.56 25.5371L334.284 27.3389C335.381 23.8525 336.93 21.0145 338.885 18.7545L334.347 14.8295ZM328.565 25.5217C327.252 29.6164 326.62 34.1736 326.62 39.158H332.62C332.62 34.6731 333.189 30.7503 334.279 27.3543L328.565 25.5217ZM326.62 39.158C326.62 45.6762 327.619 51.4898 329.711 56.5268L335.252 54.2252C333.529 50.0755 332.62 45.0772 332.62 39.158H326.62ZM329.727 56.5629C331.916 61.6444 335.179 65.6655 339.542 68.4935L342.806 63.4585C339.537 61.3399 337.006 58.2943 335.237 54.1891L329.727 56.5629ZM339.563 68.507C344.042 71.3567 349.477 72.686 355.696 72.686V66.686C350.326 66.686 346.08 65.5419 342.785 63.445L339.563 68.507ZM355.696 72.686C359.187 72.686 362.521 72.3889 365.691 71.785L364.569 65.891C361.803 66.4178 358.847 66.686 355.696 66.686V72.686ZM365.691 71.785C368.758 71.2008 371.756 70.4698 374.684 69.5915L372.96 63.8445C370.234 64.6622 367.438 65.3445 364.569 65.891L365.691 71.785ZM370.822 66.718V74.986H376.822V66.718H370.822ZM372.769 72.177C370.131 73.1663 367.389 73.8934 364.542 74.357L365.506 80.279C368.736 79.7532 371.86 78.9257 374.875 77.795L372.769 72.177ZM364.531 74.3588C361.774 74.8182 358.38 75.06 354.318 75.06V81.06C358.595 81.06 362.337 80.8071 365.517 80.2772L364.531 74.3588ZM354.318 75.06C347.022 75.06 341.173 73.5551 336.6 70.7362L333.452 75.8438C339.196 79.3849 346.208 81.06 354.318 81.06V75.06ZM336.6 70.7362C331.987 67.8923 328.49 63.8493 326.106 58.5005L320.626 60.9435C323.471 67.3254 327.748 72.3277 333.452 75.8438L336.6 70.7362ZM326.118 58.5282C323.772 53.118 322.55 46.6509 322.55 39.052H316.55C316.55 47.2824 317.872 54.5954 320.614 60.9158L326.118 58.5282ZM322.55 39.052C322.55 33.5996 323.29 28.6914 324.732 24.2999L319.032 22.4281C317.364 27.5059 316.55 33.0564 316.55 39.052H322.55ZM324.719 24.3381C326.229 19.9408 328.374 16.1911 331.133 13.0468L326.623 9.08923C323.305 12.8702 320.786 17.3179 319.045 22.3899L324.719 24.3381ZM331.11 13.0724C333.9 9.965 337.333 7.57203 341.455 5.8974L339.197 0.338596C334.274 2.33864 330.074 5.24566 326.646 9.06362L331.11 13.0724ZM341.492 5.88209C345.581 4.15701 350.367 3.256 355.908 3.256V-2.744C349.719 -2.744 344.116 -1.73701 339.16 0.353905L341.492 5.88209ZM355.908 3.256C359.593 3.256 363.126 3.62441 366.511 4.35456L367.776 -1.51057C363.954 -2.33509 359.996 -2.744 355.908 -2.744V3.256ZM366.511 4.35456C369.909 5.08743 372.88 6.10727 375.448 7.39128L378.132 2.02472C375.046 0.482052 371.587 -0.68877 367.777 -1.51057L366.511 4.35456ZM374.079 3.42374L370.263 11.4797L375.685 14.0483L379.501 5.99226L374.079 3.42374ZM374.215 10.0329C371.734 8.90489 368.983 7.90383 365.973 7.02279L364.287 12.7812C367.072 13.5962 369.55 14.5031 371.733 15.4951L374.215 10.0329ZM365.992 7.02852C362.848 6.08518 359.443 5.63 355.802 5.63V11.63C358.945 11.63 361.759 12.0228 364.268 12.7755L365.992 7.02852ZM414.297 77V80H417.297V77H414.297ZM404.757 77H401.757V80H404.757V77ZM404.757 9.68999H407.757V6.68999H404.757V9.68999ZM381.119 9.68999H378.119V12.69H381.119V9.68999ZM381.119 1.31599V-1.68401H378.119V1.31599H381.119ZM437.829 1.31599H440.829V-1.68401H437.829V1.31599ZM437.829 9.68999V12.69H440.829V9.68999H437.829ZM414.297 9.68999V6.68999H411.297V9.68999H414.297ZM414.297 74H404.757V80H414.297V74ZM407.757 77V9.68999H401.757V77H407.757ZM404.757 6.68999H381.119V12.69H404.757V6.68999ZM384.119 9.68999V1.31599H378.119V9.68999H384.119ZM381.119 4.31599H437.829V-1.68401H381.119V4.31599ZM434.829 1.31599V9.68999H440.829V1.31599H434.829ZM437.829 6.68999H414.297V12.69H437.829V6.68999ZM411.297 9.68999V77H417.297V9.68999H411.297ZM449.347 1.31599V-1.68401H446.347V1.31599H449.347ZM458.251 1.31599H461.251V-1.68401H458.251V1.31599ZM458.145 48.698L455.147 48.5981L455.145 48.648V48.698H458.145ZM457.721 60.358L454.732 60.0981L454.727 60.1599L454.724 60.2218L457.721 60.358ZM457.509 63.962L454.519 63.7129L454.249 66.962H457.509V63.962ZM457.933 63.962V66.962H459.541L460.431 65.6232L457.933 63.962ZM499.591 1.31599V-1.68401H497.983L497.093 -0.345177L499.591 1.31599ZM510.191 1.31599H513.191V-1.68401H510.191V1.31599ZM510.191 77V80H513.191V77H510.191ZM501.287 77H498.287V80H501.287V77ZM501.393 29.724L504.391 29.8207L504.392 29.8177L501.393 29.724ZM501.605 23.258L498.612 23.0584L498.608 23.1065L498.607 23.1546L501.605 23.258ZM502.135 14.036L505.123 14.3076L505.42 11.036H502.135V14.036ZM501.711 14.036V11.036H500.101L499.211 12.3777L501.711 14.036ZM459.947 77V80H461.557L462.447 78.6583L459.947 77ZM449.347 77H446.347V80H449.347V77ZM449.347 4.31599H458.251V-1.68401H449.347V4.31599ZM455.251 1.31599V42.868H461.251V1.31599H455.251ZM455.251 42.868C455.251 44.5955 455.216 46.505 455.147 48.5981L461.143 48.7979C461.215 46.651 461.251 44.6738 461.251 42.868H455.251ZM455.145 48.698C455.145 50.7128 455.11 52.7277 455.041 54.7426L461.037 54.9494C461.109 52.8656 461.145 50.7818 461.145 48.698H455.145ZM455.041 54.7426C454.971 56.7523 454.868 58.536 454.732 60.0981L460.71 60.6179C460.857 58.9293 460.965 57.0384 461.037 54.9494L455.041 54.7426ZM454.724 60.2218C454.654 61.7641 454.585 62.9213 454.519 63.7129L460.499 64.2111C460.574 63.3067 460.647 62.0612 460.718 60.4942L454.724 60.2218ZM457.509 66.962H457.933V60.962H457.509V66.962ZM460.431 65.6232L502.089 2.97717L497.093 -0.345177L455.435 62.3008L460.431 65.6232ZM499.591 4.31599H510.191V-1.68401H499.591V4.31599ZM507.191 1.31599V77H513.191V1.31599H507.191ZM510.191 74H501.287V80H510.191V74ZM504.287 77V35.872H498.287V77H504.287ZM504.287 35.872C504.287 34.0006 504.322 31.9838 504.391 29.8207L498.395 29.6273C498.323 31.8456 498.287 33.9274 498.287 35.872H504.287ZM504.392 29.8177C504.462 27.5593 504.533 25.4072 504.603 23.3614L498.607 23.1546C498.536 25.2075 498.465 27.3661 498.394 29.6303L504.392 29.8177ZM504.598 23.4576C504.741 21.321 504.848 19.4245 504.92 17.7703L498.926 17.5097C498.856 19.1062 498.752 20.955 498.612 23.0584L504.598 23.4576ZM504.92 17.7703C504.99 16.1531 505.059 15.0107 505.123 14.3076L499.147 13.7644C499.07 14.616 498.997 15.8762 498.926 17.5097L504.92 17.7703ZM502.135 11.036H501.711V17.036H502.135V11.036ZM499.211 12.3777L457.447 75.3417L462.447 78.6583L504.211 15.6943L499.211 12.3777ZM459.947 74H449.347V80H459.947V74ZM452.347 77V1.31599H446.347V77H452.347ZM585.83 77V80H592.481L588.079 75.0145L585.83 77ZM574.382 77L572.144 78.9973L573.038 80H574.382V77ZM540.144 38.628L542.383 36.6307L537.144 30.7597V38.628H540.144ZM540.144 77V80H543.144V77H540.144ZM530.604 77H527.604V80H530.604V77ZM530.604 1.31599V-1.68401H527.604V1.31599H530.604ZM540.144 1.31599H543.144V-1.68401H540.144V1.31599ZM540.144 37.992H537.144V45.7435L542.363 40.0116L540.144 37.992ZM573.534 1.31599V-1.68401H572.208L571.316 -0.703617L573.534 1.31599ZM584.346 1.31599L586.583 3.31468L591.049 -1.68401H584.346V1.31599ZM551.486 38.098L549.249 36.0993L547.474 38.0862L549.237 40.0835L551.486 38.098ZM585.83 74H574.382V80H585.83V74ZM576.621 75.0027L542.383 36.6307L537.906 40.6253L572.144 78.9973L576.621 75.0027ZM537.144 38.628V77H543.144V38.628H537.144ZM540.144 74H530.604V80H540.144V74ZM533.604 77V1.31599H527.604V77H533.604ZM530.604 4.31599H540.144V-1.68401H530.604V4.31599ZM537.144 1.31599V37.992H543.144V1.31599H537.144ZM542.363 40.0116L575.753 3.33561L571.316 -0.703617L537.926 35.9724L542.363 40.0116ZM573.534 4.31599H584.346V-1.68401H573.534V4.31599ZM582.109 -0.682693L549.249 36.0993L553.724 40.0967L586.583 3.31468L582.109 -0.682693ZM549.237 40.0835L583.581 78.9855L588.079 75.0145L553.735 36.1125L549.237 40.0835Z" fill="white"/>
</svg>
