<svg width="17" height="11" viewBox="0 0 17 11" fill="none" xmlns="http://www.w3.org/2000/svg">
<path d="M9.00712 10.5748C3.63113 10.5748 0.564747 6.76474 0.436981 0.424805H3.12989C3.21834 5.07816 5.20363 7.04923 6.77613 7.45564V0.424805H9.31179V4.43807C10.8646 4.26535 12.4961 2.43652 13.0465 0.424805H15.5821C15.3747 1.46814 14.9613 2.456 14.3678 3.32662C13.7742 4.19723 13.0132 4.93186 12.1325 5.48456C13.1156 5.98958 13.984 6.70439 14.6802 7.58182C15.3765 8.45925 15.8849 9.47935 16.1718 10.5748H13.3806C13.1231 9.62332 12.5996 8.77159 11.8758 8.12635C11.152 7.48112 10.26 7.07108 9.31179 6.94763V10.5748H9.00712Z" fill="white"/>
</svg>
